<svg width="45" height="50" viewBox="0 0 45 50" fill="none" xmlns="http://www.w3.org/2000/svg">
<g clip-path="url(#clip0_301_91)">
<path d="M6.93985 24.4118L0.194092 24.3588L0.22799 19.8049L1.37865 19.8144L1.35417 23.0496L3.0924 23.0628L3.11311 20.3706L4.17714 20.3782L4.15643 23.0704L6.95115 23.0931L6.93985 24.4099V24.4118Z" fill="#D93023"/>
<path d="M7.12994 24.6048L0 24.5499L0.0376648 19.6101L1.5725 19.6234L1.54802 22.8586L2.90207 22.868L2.92279 20.1758L4.371 20.1871L4.35028 22.8794L7.14501 22.9002L7.13183 24.6048H7.12994ZM0.387947 24.1659L6.74953 24.2151L6.75706 23.2842L3.96234 23.2634L3.98305 20.5712L3.3032 20.5655L3.28249 23.2578L1.15819 23.2426L1.18267 20.0074L0.418079 20.0017L0.386064 24.1697L0.387947 24.1659Z" fill="#D93023"/>
<path d="M8.66887 15.4894C8.48055 15.9492 8.22066 16.3275 7.89109 16.6284C7.56153 16.9292 7.19053 17.1505 6.77998 17.2924C6.36755 17.4343 5.94382 17.5024 5.50503 17.4911C5.06623 17.4816 4.64816 17.3946 4.25079 17.2281C3.8346 17.0559 3.47113 16.8119 3.15663 16.4997C2.84401 16.1875 2.59543 15.8337 2.41275 15.4364C2.23008 15.041 2.12838 14.6191 2.10955 14.1745C2.09072 13.7299 2.17358 13.2834 2.35814 12.8369C2.54458 12.3829 2.80635 12.0083 3.14156 11.7112C3.47678 11.4123 3.85155 11.1947 4.26397 11.0585C4.6764 10.9204 5.10202 10.8561 5.53704 10.8636C5.97207 10.8731 6.38827 10.9601 6.78752 11.1247C7.19806 11.295 7.55964 11.5353 7.87415 11.8455C8.18865 12.1539 8.43723 12.5077 8.61991 12.905C8.80258 13.3023 8.90239 13.7223 8.91934 14.1651C8.93441 14.6097 8.85343 15.0524 8.67075 15.4932L8.66887 15.4894ZM4.75927 15.9927C5.02857 16.1043 5.30541 16.1724 5.59166 16.1932C5.87791 16.2159 6.15098 16.1894 6.41087 16.1156C6.67264 16.0419 6.90428 15.9151 7.11332 15.7354C7.32047 15.5556 7.48431 15.3229 7.60296 15.0335C7.72349 14.7402 7.77245 14.4526 7.74608 14.1745C7.7216 13.8945 7.63874 13.6372 7.49938 13.4007C7.36002 13.1642 7.183 12.9542 6.96642 12.7707C6.74985 12.5891 6.51633 12.4453 6.26397 12.3393C5.99467 12.2277 5.71972 12.1634 5.43347 12.1445C5.1491 12.1274 4.87791 12.1558 4.61802 12.2296C4.35814 12.3034 4.12462 12.432 3.91558 12.6099C3.70842 12.7896 3.54646 13.0204 3.4297 13.3023C3.30541 13.6032 3.25833 13.8907 3.28469 14.1669C3.31106 14.4432 3.39392 14.6986 3.52951 14.9351C3.6651 15.1716 3.84025 15.3797 4.05305 15.5613C4.26586 15.7429 4.50126 15.8867 4.75927 15.9946V15.9927Z" fill="#D93023"/>
<path d="M5.59719 17.686C5.56518 17.686 5.53316 17.686 5.50115 17.686C5.04164 17.6765 4.59531 17.5819 4.17723 17.4079C3.74032 17.2263 3.35237 16.9671 3.02281 16.6379C2.69512 16.3106 2.43147 15.9341 2.23938 15.5178C2.04729 15.1016 1.93806 14.6532 1.91923 14.184C1.90039 13.7129 1.98891 13.2343 2.18288 12.7632C2.38062 12.2845 2.65934 11.8834 3.01716 11.5656C3.36932 11.2515 3.76857 11.0188 4.20736 10.8731C4.63674 10.7294 5.08307 10.6594 5.54446 10.6688C6.00397 10.6783 6.44653 10.771 6.86461 10.945C7.29399 11.1229 7.68006 11.3802 8.01151 11.7056C8.34107 12.0291 8.60473 12.4056 8.79682 12.8218C8.99079 13.24 9.09625 13.6883 9.1132 14.1556C9.13015 14.6286 9.04164 15.1016 8.84955 15.5632C8.64992 16.0457 8.37309 16.4525 8.02469 16.7703C7.67441 17.0881 7.27893 17.3246 6.84578 17.4741C6.44277 17.6141 6.02281 17.6841 5.59908 17.6841L5.59719 17.686ZM5.46348 11.0548C5.07554 11.0548 4.69512 11.1172 4.32789 11.2402C3.93994 11.3688 3.58401 11.5769 3.27139 11.8551C2.95878 12.1332 2.71207 12.487 2.53881 12.9108C2.36744 13.3289 2.28834 13.7527 2.30529 14.167C2.32224 14.5851 2.42017 14.9843 2.59154 15.3551C2.7648 15.7297 3.00209 16.0684 3.29776 16.3635C3.59154 16.6568 3.93994 16.8876 4.32977 17.0503C4.70265 17.2054 5.1019 17.2887 5.51621 17.2981C5.93241 17.3095 6.33354 17.2452 6.72337 17.1108C7.10567 16.9784 7.45783 16.7684 7.76857 16.4865C8.07554 16.2065 8.32036 15.847 8.49738 15.4176C8.66687 15.007 8.74597 14.587 8.7309 14.1708C8.71584 13.7546 8.62168 13.3554 8.4503 12.9845C8.27704 12.6118 8.03975 12.2732 7.74409 11.9818C7.44842 11.6905 7.1019 11.4615 6.7196 11.3007C6.34672 11.1456 5.94936 11.0623 5.53881 11.0529C5.51433 11.0529 5.49173 11.0529 5.46725 11.0529L5.46348 11.0548ZM5.79117 16.3976C5.72149 16.3976 5.64992 16.3938 5.57836 16.3881C5.27328 16.3654 4.97384 16.2935 4.68759 16.1724C4.41452 16.0589 4.16028 15.9019 3.93053 15.7089C3.69889 15.5103 3.50868 15.2832 3.36367 15.0316C3.21301 14.7705 3.12262 14.4867 3.09437 14.1859C3.06424 13.8775 3.11885 13.5559 3.25256 13.2286C3.38062 12.9183 3.56141 12.661 3.78928 12.4643C4.01904 12.2675 4.27893 12.1275 4.56329 12.0442C4.8439 11.9648 5.13957 11.9345 5.44277 11.9534C5.74785 11.9742 6.04729 12.0443 6.33354 12.1634C6.60096 12.2751 6.8552 12.4302 7.08684 12.6251C7.31847 12.8218 7.51056 13.0489 7.66122 13.3043C7.81377 13.5673 7.90604 13.8548 7.93241 14.1594C7.96066 14.4678 7.90793 14.7876 7.77422 15.1092C7.64616 15.4214 7.46348 15.6824 7.23373 15.883C7.00397 16.0797 6.74409 16.2216 6.45783 16.303C6.24314 16.3654 6.01716 16.3957 5.78363 16.3957L5.79117 16.3976ZM5.27516 12.3375C5.068 12.3375 4.86461 12.364 4.67252 12.4189C4.44088 12.4851 4.22996 12.6005 4.04352 12.7594C3.85896 12.9183 3.71772 13.1227 3.61038 13.3781C3.49926 13.6467 3.45595 13.9059 3.47855 14.15C3.50115 14.3959 3.57648 14.6286 3.697 14.8405C3.81942 15.0543 3.98137 15.2473 4.17911 15.4157C4.37685 15.5841 4.59719 15.7184 4.83448 15.8168C5.08307 15.9208 5.34296 15.9833 5.60849 16.0041C5.87026 16.0268 6.1245 16.0003 6.35991 15.9341C6.59154 15.8678 6.80435 15.7543 6.98891 15.5935C7.17346 15.4346 7.32036 15.2227 7.42582 14.9654C7.53505 14.7005 7.57836 14.4432 7.55576 14.1973C7.53316 13.9494 7.45972 13.7148 7.33542 13.5029C7.20736 13.2873 7.04164 13.0905 6.8439 12.924C6.64239 12.7556 6.42394 12.6194 6.1923 12.5229C5.94559 12.4207 5.68571 12.3602 5.42394 12.3413C5.37497 12.3375 5.32412 12.3375 5.27516 12.3375Z" fill="#D93023"/>
<path d="M13.9167 9.54677C13.5062 9.82299 13.0806 9.99137 12.6399 10.0576C12.1992 10.1219 11.7698 10.0992 11.348 9.98569C10.928 9.87218 10.5382 9.69055 10.1804 9.43703C9.82258 9.18351 9.52314 8.87702 9.28397 8.51566C9.03538 8.13917 8.86589 7.73429 8.78115 7.29915C8.69452 6.86401 8.6851 6.43075 8.7529 5.99939C8.8207 5.56803 8.97135 5.16127 9.20111 4.78288C9.43275 4.4026 9.74913 4.07908 10.1484 3.81043C10.5552 3.53799 10.9789 3.37339 11.4233 3.31285C11.8678 3.2542 12.299 3.28258 12.719 3.39798C13.139 3.51528 13.5269 3.6988 13.8828 3.94854C14.2388 4.20016 14.5363 4.50476 14.7755 4.86612C15.0203 5.23694 15.1879 5.63992 15.2783 6.07318C15.3668 6.50643 15.3781 6.93779 15.3103 7.37104C15.2425 7.8024 15.0919 8.20728 14.8584 8.58377C14.6248 8.96027 14.3103 9.2819 13.9149 9.54677H13.9167ZM10.3913 7.77592C10.5533 8.01998 10.7454 8.22998 10.9714 8.40971C11.1955 8.58756 11.4365 8.71999 11.6945 8.80324C11.9525 8.88837 12.2162 8.91297 12.4874 8.8808C12.7585 8.84864 13.0241 8.74648 13.2821 8.57431C13.5457 8.39836 13.7454 8.18647 13.8791 7.94051C14.0128 7.69456 14.0881 7.43348 14.1032 7.15915C14.1201 6.88482 14.0881 6.61238 14.0109 6.33805C13.9337 6.06561 13.8188 5.81398 13.6663 5.58695C13.5062 5.34289 13.3122 5.13289 13.0862 4.95883C12.8602 4.78477 12.6192 4.65612 12.3612 4.57098C12.1051 4.48774 11.8395 4.46125 11.5683 4.49341C11.2972 4.52747 11.0354 4.62774 10.7811 4.79612C10.5118 4.97586 10.3122 5.18775 10.1804 5.43181C10.0505 5.67587 9.97512 5.93317 9.95817 6.20561C9.93934 6.47805 9.96947 6.7486 10.0448 7.01725C10.122 7.2878 10.2369 7.53942 10.3913 7.77213V7.77592Z" fill="#D93023"/>
<path d="M12.1634 10.2846C11.8696 10.2846 11.5815 10.2468 11.299 10.1711C10.8564 10.0519 10.444 9.85703 10.0692 9.59405C9.69072 9.32539 9.37433 8.99809 9.12386 8.62159C8.86209 8.22618 8.6813 7.79293 8.5909 7.33508C8.50051 6.87723 8.49109 6.41749 8.56077 5.96721C8.63233 5.51126 8.79241 5.078 9.03535 4.67881C9.28017 4.27582 9.61915 3.92771 10.041 3.64581C10.4685 3.36013 10.9242 3.18229 11.3969 3.11796C11.864 3.05553 12.3254 3.0858 12.7698 3.20877C13.2067 3.32986 13.6192 3.52473 13.9939 3.78771C14.3687 4.05068 14.6851 4.3761 14.9355 4.75638C15.1935 5.14801 15.3724 5.57558 15.4666 6.03154C15.5608 6.4856 15.5721 6.94534 15.5005 7.39751C15.4289 7.85158 15.2689 8.28483 15.0222 8.68214C14.7773 9.08133 14.4402 9.42377 14.0222 9.70378C13.5909 9.99325 13.1352 10.1749 12.6662 10.2449C12.4967 10.2695 12.3291 10.2827 12.1615 10.2827L12.1634 10.2846ZM11.8696 3.47364C11.7303 3.47364 11.5909 3.4831 11.4515 3.50202C11.0391 3.55878 10.6361 3.71581 10.2576 3.96744C9.88281 4.21907 9.58337 4.52556 9.3668 4.87935C9.15023 5.23503 9.00898 5.62099 8.94307 6.02586C8.87904 6.43074 8.88846 6.84507 8.96943 7.25751C9.05041 7.66428 9.21049 8.05023 9.44401 8.40591C9.66812 8.74268 9.95249 9.03593 10.2896 9.2762C10.6267 9.51459 10.9977 9.68864 11.3969 9.79648C11.7886 9.90054 12.1973 9.92324 12.6116 9.86459C13.0222 9.80405 13.4252 9.64135 13.8094 9.38404C14.1804 9.1362 14.4779 8.8316 14.6964 8.48159C14.9148 8.1278 15.0579 7.74374 15.1201 7.33886C15.1841 6.9321 15.1747 6.51776 15.09 6.111C15.0071 5.70423 14.847 5.32206 14.6154 4.97206C14.3913 4.6334 14.1069 4.34204 13.7736 4.10555C13.4346 3.86906 13.0636 3.69311 12.6681 3.58148C12.4082 3.50959 12.1408 3.47364 11.8677 3.47364H11.8696ZM12.2613 9.08512C12.0485 9.08512 11.8395 9.05106 11.6361 8.98485C11.3574 8.89403 11.0956 8.75025 10.8527 8.55916C10.6116 8.36807 10.4026 8.13915 10.2331 7.87996C10.0692 7.63211 9.94495 7.35967 9.86209 7.07021C9.78111 6.77885 9.7491 6.48371 9.76793 6.19235C9.78676 5.89532 9.86962 5.60964 10.0127 5.33909C10.1596 5.06665 10.3837 4.83016 10.6756 4.6334C10.9506 4.44799 11.2444 4.33637 11.5457 4.29853C11.8451 4.26447 12.1408 4.29285 12.4214 4.38366C12.6982 4.47448 12.96 4.61448 13.203 4.80178C13.4459 4.98908 13.6549 5.21611 13.8263 5.47531C13.9864 5.71559 14.1107 5.98613 14.1954 6.27938C14.2802 6.57263 14.3122 6.86966 14.2952 7.16481C14.2783 7.46562 14.1954 7.75509 14.0485 8.02753C13.8998 8.29997 13.6794 8.53646 13.3894 8.72943C13.105 8.91863 12.8094 9.03214 12.5099 9.06809C12.4271 9.07755 12.3442 9.08322 12.2613 9.08322V9.08512ZM10.5532 7.66617C10.702 7.89131 10.8828 8.08996 11.0918 8.25456C11.2971 8.41726 11.5193 8.54024 11.7547 8.61592C11.9845 8.6916 12.2218 8.7143 12.4647 8.68403C12.7058 8.65565 12.945 8.56294 13.1766 8.4078C13.4139 8.24888 13.5928 8.05969 13.7114 7.84212C13.8301 7.62265 13.8979 7.38616 13.9129 7.1421C13.928 6.89048 13.8998 6.63696 13.8282 6.38533C13.7547 6.12992 13.6474 5.89721 13.5099 5.6891C13.3611 5.46396 13.1804 5.2672 12.9732 5.10638C12.766 4.94746 12.5401 4.82638 12.3065 4.7507C12.0787 4.67691 11.8395 4.65421 11.5966 4.6807C11.3574 4.71097 11.1201 4.80178 10.8941 4.95314C10.653 5.11395 10.4723 5.30504 10.3555 5.52072C10.2387 5.74018 10.1709 5.97478 10.1559 6.21505C10.1389 6.4629 10.1672 6.71453 10.2369 6.96237C10.3084 7.2121 10.4158 7.4467 10.5589 7.66238L10.5532 7.66617Z" fill="#D93023"/>
<path d="M18.5515 7.16685L17.9978 0.412646L20.4404 0.210209C21.1729 0.149668 21.7982 0.24994 22.3142 0.511027C22.8302 0.772113 23.2332 1.14672 23.5213 1.63673C23.8095 2.12863 23.979 2.68297 24.0298 3.30352C24.0863 3.9884 23.9997 4.59571 23.7699 5.12545C23.5402 5.65519 23.188 6.08088 22.7172 6.40061C22.2445 6.72035 21.6701 6.90765 20.9959 6.96441L18.5515 7.16685ZM22.7153 3.41325C22.6795 2.97622 22.5684 2.59594 22.3839 2.27809C22.1993 1.95836 21.9507 1.71619 21.6381 1.55348C21.3255 1.39078 20.9583 1.32645 20.5345 1.3624L19.397 1.45699L19.7624 5.90871L20.8999 5.81601C21.3293 5.78006 21.6852 5.6533 21.9658 5.43573C22.2464 5.21816 22.4498 4.93247 22.5778 4.58057C22.704 4.22867 22.7492 3.84083 22.7153 3.41514V3.41325Z" fill="#D93023"/>
<path d="M18.3765 7.37488L17.7908 0.236621L20.4254 0.0171571C21.1881 -0.0471686 21.8548 0.0625635 22.4028 0.336894C22.9508 0.611224 23.384 1.0161 23.6891 1.53638C23.9904 2.04909 24.1712 2.63748 24.2239 3.28642C24.2823 3.99968 24.19 4.64482 23.949 5.20105C23.706 5.76296 23.3275 6.2208 22.8266 6.55946C22.3294 6.89622 21.7192 7.09677 21.013 7.15542L18.3783 7.37299L18.3765 7.37488ZM18.2051 0.588521L18.7267 6.95866L20.9791 6.77325C21.6194 6.72027 22.1674 6.54054 22.61 6.24162C23.0488 5.94458 23.3802 5.54349 23.5949 5.0497C23.8115 4.55023 23.8925 3.9694 23.8397 3.32047C23.7908 2.73019 23.6288 2.19666 23.3576 1.73503C23.0883 1.27908 22.7098 0.925285 22.2296 0.685009C21.7456 0.44095 21.1486 0.348245 20.4556 0.405003L18.2051 0.592305V0.588521ZM19.5893 6.11486L19.1919 1.27718L20.5196 1.16745C20.9772 1.12772 21.3821 1.20151 21.7267 1.37935C22.0714 1.55908 22.3482 1.82774 22.5497 2.17774C22.7475 2.52018 22.868 2.92884 22.9056 3.39426C22.9433 3.84643 22.8925 4.26455 22.7569 4.64104C22.6175 5.027 22.3896 5.34484 22.0827 5.58322C21.7738 5.8235 21.3821 5.9635 20.9169 6.00323L19.5874 6.11297L19.5893 6.11486ZM19.6062 1.63098L19.9414 5.69863L20.8868 5.62106C21.2766 5.58701 21.6006 5.47349 21.8492 5.28051C22.1015 5.08375 22.2823 4.83213 22.3972 4.51239C22.5139 4.18887 22.5554 3.82562 22.5234 3.42831C22.4895 3.02155 22.3878 2.66586 22.2164 2.37451C22.0507 2.08882 21.8266 1.86936 21.5478 1.72368C21.2691 1.57989 20.932 1.52124 20.5497 1.55341L19.6043 1.63098H19.6062Z" fill="#D93023"/>
<path d="M29.687 8.51016L33.5251 2.93652L37.252 5.52658L36.5985 6.47633L33.9488 4.63548L32.9601 6.07146L35.1635 7.60392L34.559 8.48367L32.3556 6.95121L30.7661 9.25936L29.687 8.51016Z" fill="#D93023"/>
<path d="M30.8132 9.52983L29.4177 8.55926L33.4742 2.66968L37.5175 5.4792L36.6456 6.74679L33.9959 4.90594L33.2256 6.02407L35.429 7.55654L34.606 8.75413L32.4027 7.22167L30.8132 9.52983ZM29.9526 8.46278L30.7153 8.99252L32.3047 6.68436L34.5081 8.21682L34.8942 7.65492L32.6908 6.12246L33.8979 4.36863L36.5477 6.20948L36.9827 5.57758L33.5721 3.20699L29.9526 8.46278Z" fill="#D93023"/>
<path d="M36.0653 14.9597C35.877 14.5019 35.7923 14.0497 35.8149 13.6032C35.8375 13.1567 35.9429 12.7367 36.1331 12.3432C36.3252 11.9496 36.5776 11.6015 36.8958 11.2969C37.2122 10.9923 37.57 10.7577 37.9674 10.5931C38.3836 10.421 38.8111 10.3339 39.2536 10.332C39.6962 10.332 40.1199 10.4058 40.5286 10.5553C40.9373 10.7066 41.3045 10.9318 41.6303 11.2326C41.958 11.5334 42.2122 11.908 42.3968 12.3545C42.5832 12.8067 42.6623 13.257 42.6341 13.7072C42.6058 14.1556 42.4947 14.5756 42.3007 14.9673C42.1049 15.3589 41.8506 15.7051 41.5361 16.0078C41.2216 16.3105 40.8657 16.5451 40.4683 16.7097C40.0578 16.88 39.6341 16.967 39.1934 16.9708C38.7527 16.9746 38.329 16.9027 37.9203 16.7514C37.5135 16.6 37.1463 16.3749 36.8224 16.0722C36.4985 15.7694 36.2461 15.3967 36.0634 14.9559L36.0653 14.9597ZM38.4778 11.8286C38.2085 11.9402 37.9655 12.0896 37.7471 12.2769C37.5286 12.4642 37.3535 12.6761 37.2235 12.9145C37.0917 13.151 37.0145 13.4083 36.9938 13.6808C36.973 13.9532 37.022 14.2351 37.1407 14.5227C37.2631 14.8159 37.4288 15.0543 37.6435 15.2321C37.8582 15.4119 38.0973 15.5348 38.3629 15.6048C38.6284 15.673 38.9015 15.6957 39.1821 15.673C39.4627 15.6484 39.7301 15.584 39.9806 15.48C40.2499 15.3684 40.4909 15.217 40.7056 15.0278C40.9184 14.8405 41.0917 14.6267 41.2235 14.3902C41.3553 14.1518 41.4326 13.8964 41.4533 13.624C41.474 13.3497 41.4269 13.0715 41.3101 12.7897C41.1877 12.4907 41.0182 12.2523 40.8054 12.0745C40.5926 11.8986 40.3535 11.7756 40.0917 11.7037C39.8299 11.6337 39.5587 11.611 39.28 11.6337C39.0013 11.6564 38.7339 11.7207 38.4759 11.8286H38.4778Z" fill="#D93023"/>
<path d="M39.1598 17.1676C38.7097 17.1676 38.2709 17.09 37.8547 16.9368C37.4253 16.7778 37.0336 16.5357 36.6928 16.2178C36.35 15.8962 36.0788 15.4989 35.8886 15.0354C35.689 14.5529 35.6005 14.0686 35.6231 13.5937C35.6457 13.1226 35.7606 12.6723 35.9621 12.2599C36.1617 11.8493 36.4329 11.4785 36.7643 11.1607C37.0958 10.8428 37.4762 10.5912 37.8961 10.4172C38.3331 10.2355 38.7907 10.1428 39.2558 10.1428H39.2728C39.7267 10.1428 40.173 10.2223 40.5967 10.3793C41.028 10.5382 41.4197 10.7804 41.7624 11.0964C42.109 11.4142 42.382 11.8153 42.576 12.2864C42.7737 12.7631 42.8585 13.2475 42.8283 13.7243C42.8001 14.1953 42.6815 14.6456 42.4743 15.0581C42.2709 15.4667 42.0016 15.8338 41.672 16.1516C41.3425 16.4694 40.9621 16.7192 40.544 16.8932C40.1146 17.073 39.6607 17.1657 39.1975 17.1695C39.1862 17.1695 39.173 17.1695 39.1617 17.1695L39.1598 17.1676ZM39.2709 10.525H39.2558C38.8415 10.525 38.4329 10.6082 38.0412 10.7709C37.6664 10.928 37.3255 11.1512 37.028 11.4369C36.7285 11.7245 36.4856 12.0575 36.3048 12.4264C36.1259 12.7934 36.0261 13.1907 36.0054 13.6107C35.9847 14.027 36.0638 14.4545 36.2408 14.884C36.4103 15.2964 36.6494 15.6502 36.9526 15.9321C37.2558 16.2159 37.6024 16.4316 37.9847 16.5716C38.3688 16.7135 38.7888 16.7759 39.1899 16.7797C39.6042 16.7759 40.0091 16.6927 40.3933 16.5319C40.7681 16.3767 41.1071 16.1535 41.4009 15.8697C41.6984 15.5821 41.9413 15.2491 42.1259 14.8821C42.3086 14.5151 42.414 14.1159 42.4404 13.6978C42.4668 13.2796 42.3914 12.8521 42.2163 12.4302C42.043 12.0121 41.802 11.6564 41.4969 11.3764C41.1918 11.0945 40.8415 10.8788 40.4592 10.7369C40.0769 10.5969 39.6758 10.525 39.2671 10.525H39.2709ZM38.9677 15.8754C38.7455 15.8754 38.527 15.847 38.3142 15.7921C38.0223 15.7146 37.7549 15.5765 37.5214 15.3797C37.2841 15.1829 37.0977 14.92 36.9639 14.5964C36.834 14.2805 36.7794 13.9683 36.802 13.6656C36.8246 13.3648 36.9093 13.0791 37.0562 12.818C37.1975 12.5626 37.3877 12.3299 37.6231 12.1294C37.8547 11.9307 38.1165 11.7699 38.4046 11.6507C38.6796 11.5353 38.9696 11.4653 39.2671 11.4407C39.5647 11.4161 39.8585 11.4407 40.1428 11.5164C40.431 11.5939 40.6946 11.7302 40.9282 11.9231C41.1654 12.1199 41.3538 12.3867 41.4875 12.7121C41.6155 13.0223 41.6683 13.3326 41.6457 13.6353C41.6231 13.9343 41.5383 14.2199 41.3933 14.481C41.2502 14.7364 41.0638 14.9691 40.8359 15.1697C40.6061 15.3721 40.3444 15.5348 40.0562 15.654C39.7888 15.7656 39.5007 15.8356 39.1993 15.8621C39.1221 15.8697 39.0449 15.8716 38.9677 15.8716V15.8754ZM39.4837 11.8172C39.4216 11.8172 39.3594 11.8191 39.2973 11.8248C39.0393 11.8456 38.7888 11.9061 38.5515 12.0064C38.301 12.1104 38.0732 12.2504 37.8717 12.4226C37.672 12.5929 37.5101 12.7896 37.3914 13.0072C37.2728 13.2191 37.2031 13.4499 37.1843 13.6959C37.1654 13.938 37.2106 14.1916 37.318 14.4508C37.4272 14.7156 37.5779 14.9294 37.7662 15.0846C37.9564 15.2435 38.1749 15.357 38.4122 15.4194C38.6532 15.4819 38.9093 15.5027 39.1673 15.4819C39.4291 15.4592 39.6777 15.3986 39.9093 15.3021C40.1579 15.2 40.3839 15.0581 40.5816 14.884C40.7775 14.7118 40.9357 14.5132 41.0581 14.2956C41.1767 14.0799 41.2445 13.8548 41.2634 13.6088C41.2822 13.3667 41.2389 13.1169 41.1334 12.8634C41.0223 12.5948 40.8717 12.381 40.6833 12.2239C40.4931 12.0669 40.2766 11.9534 40.043 11.891C39.8622 11.8437 39.6739 11.8191 39.4837 11.8191V11.8172Z" fill="#D93023"/>
<path d="M38.0153 19.8163L44.7611 19.7085L44.8082 22.7053C44.8138 23.0175 44.7554 23.307 44.633 23.5718C44.5106 23.8386 44.343 24.0694 44.1302 24.2681C43.9174 24.4667 43.6801 24.62 43.4146 24.7278C43.1509 24.8375 42.8797 24.8943 42.5991 24.8981C42.3147 24.9019 42.0398 24.8564 41.7743 24.7637C41.5087 24.671 41.2771 24.531 41.0793 24.3513C40.8797 24.1697 40.7234 23.9559 40.6123 23.7099L38.1001 25.2973L38.0775 23.8462L40.3166 22.4159L40.2959 21.0991L38.0341 21.135L38.0134 19.8182L38.0153 19.8163ZM41.4466 21.0783L41.4729 22.7299C41.4767 22.8945 41.5275 23.0402 41.6274 23.1669C41.7272 23.2937 41.8609 23.3921 42.0266 23.4659C42.1923 23.5397 42.3769 23.5737 42.5803 23.5699C42.795 23.5661 42.9833 23.5188 43.1434 23.428C43.3034 23.3372 43.4296 23.2218 43.5219 23.0837C43.6142 22.9456 43.6594 22.7961 43.6575 22.6372L43.6311 21.0423L41.4466 21.0783Z" fill="#D93023"/>
<path d="M37.9154 25.6415L37.8852 23.7401L40.1244 22.3098L40.1075 21.2939L37.8457 21.3298L37.8193 19.6252L44.9493 19.5098L45.0001 22.6996C45.0058 23.0401 44.9399 23.3598 44.8062 23.6512C44.6743 23.9388 44.4898 24.1923 44.26 24.408C44.0303 24.6218 43.7704 24.7883 43.4879 24.9056C43.2016 25.0247 42.9041 25.0872 42.6046 25.091C42.2996 25.0985 41.9982 25.0475 41.712 24.9453C41.4239 24.8431 41.1696 24.6899 40.953 24.4931C40.7892 24.3437 40.6498 24.1734 40.5406 23.9823L37.9173 25.6396L37.9154 25.6415ZM38.2732 23.9501L38.2883 24.9491L40.6969 23.4261L40.7873 23.6285C40.8871 23.848 41.0284 24.0428 41.2073 24.2074C41.3862 24.3701 41.599 24.4969 41.8382 24.582C42.0811 24.6691 42.3372 24.7069 42.5952 24.705C42.8476 24.7012 43.0981 24.6483 43.3391 24.548C43.5802 24.4496 43.8005 24.3077 43.9964 24.1242C44.1903 23.9445 44.3429 23.7307 44.454 23.4904C44.5632 23.252 44.6159 22.989 44.6122 22.7071L44.567 19.9033L38.2054 20.0055L38.2205 20.9363L40.4822 20.9003L40.5086 22.5179L38.2694 23.9482L38.2732 23.9501ZM42.5481 23.7647C42.3316 23.7647 42.1301 23.7231 41.9474 23.6436C41.7534 23.5566 41.5952 23.4374 41.4766 23.288C41.3504 23.129 41.2826 22.9436 41.2807 22.7336L41.2506 20.889L43.8212 20.8474L43.8495 22.6352C43.8532 22.8339 43.7949 23.0212 43.68 23.1934C43.5707 23.3561 43.422 23.4923 43.2374 23.5982C43.051 23.7061 42.8288 23.7628 42.582 23.7666C42.5707 23.7666 42.5594 23.7666 42.55 23.7666L42.5481 23.7647ZM41.6404 21.2693L41.663 22.7279C41.6649 22.8509 41.7026 22.955 41.776 23.0477C41.857 23.1498 41.9643 23.2293 42.1018 23.2917C42.2412 23.3542 42.4031 23.3826 42.5745 23.3807C42.7572 23.3788 42.9154 23.339 43.0453 23.2634C43.179 23.1877 43.2845 23.0912 43.3598 22.9777C43.4314 22.8717 43.4653 22.762 43.4634 22.6428L43.4408 21.2409L41.6404 21.2712V21.2693Z" fill="#D93023"/>
<path d="M23.0186 18.3141C22.6307 18.3141 22.3162 17.9981 22.3162 17.6084C22.3162 14.7705 24.6156 12.4604 27.4405 12.4604C27.8284 12.4604 28.1429 12.7783 28.1429 13.1661C28.1429 16.004 25.8435 18.3141 23.0186 18.3141ZM27.2371 13.3705C25.0695 13.4745 23.3256 15.2265 23.222 17.4041C25.3896 17.3 27.1354 15.5481 27.2371 13.3705Z" fill="#E8BB59"/>
<path d="M23.0186 22.1849C22.6307 22.1849 22.3162 21.869 22.3162 21.4792C22.3162 18.6413 24.6156 16.3313 27.4405 16.3313C27.8284 16.3313 28.1429 16.6473 28.1429 17.037C28.1429 19.8749 25.8435 22.1849 23.0186 22.1849ZM27.2371 17.2413C25.0695 17.3454 23.3256 19.0973 23.222 21.2749C25.3896 21.1709 27.1335 19.4189 27.2371 17.2413Z" fill="#E8BB59"/>
<path d="M25.1713 13.955C24.9227 13.955 24.7212 13.7526 24.7212 13.5028V10.6385C24.7212 10.3887 24.9227 10.1863 25.1713 10.1863C25.4199 10.1863 25.6214 10.3887 25.6214 10.6385V13.5028C25.6214 13.7526 25.4199 13.955 25.1713 13.955Z" fill="#E8BB59"/>
<path d="M22.5001 36.7546C22.2516 36.7546 22.05 36.5522 22.05 36.3025V8.51565C22.05 8.26591 22.2516 8.06348 22.5001 8.06348C22.7487 8.06348 22.9502 8.26591 22.9502 8.51565V36.3025C22.9502 36.5522 22.7487 36.7546 22.5001 36.7546Z" fill="#E8BB59"/>
<path d="M21.9185 18.3141C19.0936 18.3141 16.7942 16.004 16.7942 13.1661C16.7942 12.7764 17.1087 12.4604 17.4966 12.4604C20.3215 12.4604 22.6209 14.7705 22.6209 17.6084C22.6209 17.9981 22.3045 18.3141 21.9185 18.3141ZM17.7 13.3705C17.8036 15.5481 19.5475 17.3019 21.7151 17.4041C21.6115 15.2265 19.8676 13.4726 17.7 13.3705Z" fill="#E8BB59"/>
<path d="M21.9183 22.1849C21.5511 22.1849 21.1857 22.1452 20.8298 22.0676C20.5869 22.0147 20.4324 21.7744 20.4852 21.5303C20.5379 21.2863 20.7752 21.1292 21.02 21.1841C21.2479 21.2333 21.4814 21.2636 21.7149 21.2749C21.6113 19.0973 19.8675 17.3454 17.6999 17.2413C17.7714 18.7435 18.6226 20.0925 19.9597 20.7963C20.1801 20.9136 20.2648 21.186 20.1499 21.4074C20.0332 21.6287 19.762 21.7138 19.5417 21.5984C17.8467 20.7054 16.7959 18.9573 16.7959 17.037C16.7959 16.6473 17.1104 16.3313 17.4983 16.3313C20.3232 16.3313 22.6226 18.6413 22.6226 21.4792C22.6226 21.869 22.3063 22.1849 21.9202 22.1849H21.9183Z" fill="#E8BB59"/>
<path d="M19.766 13.955C19.5174 13.955 19.3159 13.7526 19.3159 13.5028V10.6385C19.3159 10.3887 19.5174 10.1863 19.766 10.1863C20.0146 10.1863 20.2161 10.3887 20.2161 10.6385V13.5028C20.2161 13.7526 20.0146 13.955 19.766 13.955Z" fill="#E8BB59"/>
<path d="M24.2554 17.949L22.4983 20.6734V17.949H24.2554Z" fill="#E8BB59"/>
<path d="M20.7437 17.949L22.4988 20.6734V17.949H20.7437Z" fill="#E8BB59"/>
<path d="M16.2591 26.506C15.8711 26.506 15.5566 26.19 15.5566 25.8003C15.5566 22.9624 17.8561 20.6523 20.6809 20.6523C21.0689 20.6523 21.3834 20.9702 21.3834 21.358C21.3834 24.1959 19.0839 26.506 16.2591 26.506ZM20.4775 21.5624C18.3099 21.6664 16.5661 23.4183 16.4625 25.596C18.6301 25.4919 20.3758 23.74 20.4775 21.5624Z" fill="#E8BB59"/>
<path d="M16.2591 30.3751C15.8711 30.3751 15.5566 30.0592 15.5566 29.6694C15.5566 26.8315 17.8561 24.5215 20.6809 24.5215C21.0689 24.5215 21.3834 24.8374 21.3834 25.2272C21.3834 28.0651 19.0839 30.3751 16.2591 30.3751ZM20.4775 25.4315C18.3099 25.5356 16.5661 27.2875 16.4625 29.4651C18.6301 29.361 20.374 27.6091 20.4775 25.4315Z" fill="#E8BB59"/>
<path d="M15.934 34.1646C15.6854 34.1646 15.4839 33.9622 15.4839 33.7124V16.7058C15.4839 16.4561 15.6854 16.2537 15.934 16.2537C16.1826 16.2537 16.3841 16.4561 16.3841 16.7058V33.7105C16.3841 33.9603 16.1826 34.1627 15.934 34.1627V34.1646Z" fill="#E8BB59"/>
<path d="M15.6192 26.506C12.7943 26.506 10.4949 24.1959 10.4949 21.358C10.4949 20.9683 10.8094 20.6523 11.1973 20.6523C14.0222 20.6523 16.3216 22.9624 16.3216 25.8003C16.3216 26.19 16.0071 26.506 15.6192 26.506ZM11.4007 21.5624C11.5043 23.74 13.2482 25.4938 15.4158 25.596C15.3122 23.4183 13.5683 21.6645 11.4007 21.5624Z" fill="#E8BB59"/>
<path d="M15.6192 30.3751C12.7943 30.3751 10.4949 28.0651 10.4949 25.2272C10.4949 24.8374 10.8094 24.5215 11.1973 24.5215C14.0222 24.5215 16.3216 26.8315 16.3216 29.6694C16.3216 30.0592 16.0071 30.3751 15.6192 30.3751ZM11.4007 25.4315C11.5043 27.6091 13.2482 29.361 15.4158 29.4651C15.3122 27.2875 13.5683 25.5356 11.4007 25.4315Z" fill="#E8BB59"/>
<path d="M13.4667 22.1453C13.2181 22.1453 13.0166 21.9428 13.0166 21.6931V18.8306C13.0166 18.5809 13.2181 18.3784 13.4667 18.3784C13.7153 18.3784 13.9168 18.5809 13.9168 18.8306V21.6931C13.9168 21.9428 13.7153 22.1453 13.4667 22.1453Z" fill="#E8BB59"/>
<path d="M17.4964 26.1392L15.7412 28.8654V26.1392H17.4964Z" fill="#E8BB59"/>
<path d="M14.4443 26.1392L16.1995 28.8654V26.1392H14.4443Z" fill="#E8BB59"/>
<path d="M29.1517 26.506C28.7637 26.506 28.4492 26.19 28.4492 25.8003C28.4492 22.9624 30.7487 20.6523 33.5735 20.6523C33.9615 20.6523 34.276 20.9702 34.276 21.358C34.276 24.1959 31.9765 26.506 29.1517 26.506ZM33.3701 21.5624C31.2025 21.6664 29.4568 23.4183 29.3551 25.596C31.5227 25.4919 33.2684 23.74 33.3701 21.5624Z" fill="#E8BB59"/>
<path d="M29.1517 30.3751C28.7637 30.3751 28.4492 30.0592 28.4492 29.6694C28.4492 26.8315 30.7487 24.5215 33.5735 24.5215C33.9615 24.5215 34.276 24.8374 34.276 25.2272C34.276 28.0651 31.9765 30.3751 29.1517 30.3751ZM33.3701 25.4315C31.2025 25.5356 29.4568 27.2875 29.3551 29.4651C31.5227 29.361 33.2684 27.6091 33.3701 25.4315Z" fill="#E8BB59"/>
<path d="M31.2238 22.1453C30.9752 22.1453 30.7737 21.9428 30.7737 21.6931V18.8306C30.7737 18.5809 30.9752 18.3784 31.2238 18.3784C31.4724 18.3784 31.6739 18.5809 31.6739 18.8306V21.6931C31.6739 21.9428 31.4724 22.1453 31.2238 22.1453Z" fill="#E8BB59"/>
<path d="M28.83 34.1646C28.5814 34.1646 28.3799 33.9622 28.3799 33.7124V16.7058C28.3799 16.4561 28.5814 16.2537 28.83 16.2537C29.0786 16.2537 29.2801 16.4561 29.2801 16.7058V33.7105C29.2801 33.9603 29.0786 34.1627 28.83 34.1627V34.1646Z" fill="#E8BB59"/>
<path d="M28.4874 26.5061C27.3047 26.5061 26.1503 26.0918 25.2388 25.3388C25.0467 25.1799 25.0185 24.8942 25.1767 24.7012C25.3349 24.5083 25.6174 24.4799 25.8113 24.6388C26.5119 25.2158 27.3838 25.5507 28.2859 25.5961C28.2369 24.5707 27.8264 23.6077 27.1164 22.8623C26.9432 22.6825 26.9507 22.395 27.1296 22.2228C27.3085 22.0487 27.5948 22.0544 27.7661 22.236C28.6852 23.199 29.1917 24.4647 29.1917 25.7986C29.1917 26.1883 28.8772 26.5042 28.4893 26.5042L28.4874 26.5061Z" fill="#E8BB59"/>
<path d="M28.4869 30.3751C25.8466 30.3751 23.6564 28.3885 23.389 25.7531C23.3645 25.5052 23.5434 25.282 23.792 25.2574C24.0368 25.2328 24.2609 25.4144 24.2854 25.6622C24.4982 27.7661 26.1988 29.3667 28.2835 29.465C28.1969 27.6336 26.937 26.0482 25.1611 25.5714C24.92 25.5071 24.7788 25.2574 24.8428 25.0171C24.9068 24.7749 25.1554 24.633 25.3946 24.6974C27.6281 25.299 29.1893 27.3442 29.1893 29.6694C29.1893 30.0591 28.8748 30.3751 28.4869 30.3751Z" fill="#E8BB59"/>
<path d="M30.5848 26.1392L28.8296 28.8654V26.1392H30.5848Z" fill="#E8BB59"/>
<path d="M27.314 26.1389L29.0691 28.8652V26.1389H27.314Z" fill="#E8BB59"/>
<path d="M23.0186 26.173C22.6307 26.173 22.3162 25.857 22.3162 25.4673C22.3162 22.6294 24.6156 20.3193 27.4405 20.3193C27.8284 20.3193 28.1429 20.6353 28.1429 21.025C28.1429 23.8629 25.8435 26.173 23.0186 26.173ZM27.2371 21.2294C25.0695 21.3334 23.3256 23.0853 23.222 25.263C25.3896 25.1589 27.1335 23.407 27.2371 21.2294Z" fill="#E8BB59"/>
<path d="M17.45 22.8583C17.2579 22.8583 17.079 22.7334 17.0187 22.5386C16.8681 22.0505 16.7927 21.5396 16.7927 21.025C16.7927 20.6353 17.1072 20.3193 17.4952 20.3193C18.2824 20.3193 19.0357 20.4934 19.7381 20.8377C19.9622 20.9475 20.0545 21.218 19.9453 21.4431C19.836 21.6683 19.5649 21.761 19.3426 21.6513C18.8247 21.3977 18.273 21.2558 17.6967 21.2294C17.7136 21.585 17.7739 21.935 17.8775 22.2737C17.9509 22.5121 17.8172 22.7656 17.5799 22.8394C17.5366 22.8526 17.4914 22.8602 17.4481 22.8602L17.45 22.8583Z" fill="#E8BB59"/>
<path d="M21.9185 26.1732C21.5475 26.1732 21.1783 26.1334 20.8224 26.054C20.5795 26.001 20.425 25.7588 20.4778 25.5148C20.5305 25.2707 20.7697 25.1156 21.0145 25.1685C21.2443 25.2177 21.4797 25.2499 21.7169 25.2613C21.668 24.2301 21.2537 23.2634 20.5362 22.5161C20.3629 22.3363 20.3685 22.0506 20.5475 21.8766C20.7264 21.7025 21.0107 21.7082 21.184 21.8879C22.1124 22.8528 22.6228 24.1223 22.6228 25.4656C22.6228 25.8553 22.3064 26.1713 21.9203 26.1713L21.9185 26.1732Z" fill="#E8BB59"/>
<path d="M24.2554 21.9351L22.4983 24.6613V21.9351H24.2554Z" fill="#E8BB59"/>
<path d="M20.7437 21.9351L22.4988 24.6613V21.9351H20.7437Z" fill="#E8BB59"/>
<path d="M3.76906 42.4552L3.49976 42.2036L4.5845 41.0325L5.46586 41.8555L5.26435 42.073L4.6523 41.5017L3.76906 42.4552ZM4.34533 41.793L4.90465 42.3152L4.70315 42.5328L4.14382 42.0087L4.34533 41.7911V41.793Z" fill="#D93023"/>
<path d="M4.7083 42.6254L4.16781 42.1203L3.77233 42.5478L3.40698 42.2073L4.58024 40.9397L5.55576 41.8516L5.26574 42.1638L4.65369 41.5924L4.45595 41.8062L4.99644 42.3113L4.70642 42.6254H4.7083ZM4.25632 42.0257L4.70077 42.4419L4.81376 42.3208L4.36932 41.9046L4.25632 42.0257ZM3.59154 42.1997L3.76668 42.3624L4.07365 42.0313L4.05293 42.0124L4.34295 41.7003L4.36178 41.7192L4.64804 41.4089L5.26009 41.9803L5.37308 41.8573L4.58589 41.1232L3.58966 42.1997H3.59154Z" fill="#D93023"/>
<path d="M5.33594 43.8382L6.30769 42.5706L6.85383 42.9925C6.96682 43.0795 7.04969 43.1741 7.1043 43.2744C7.15703 43.3746 7.17963 43.4768 7.1721 43.579C7.16456 43.6811 7.12313 43.7814 7.04969 43.876C6.97812 43.9706 6.89338 44.0349 6.79545 44.0671C6.6994 44.1011 6.59582 44.1049 6.4866 44.0784C6.37737 44.0519 6.26626 43.9933 6.15326 43.9063L5.76908 43.6092L5.99695 43.5809L5.62784 44.0633L5.33594 43.8382ZM5.97247 43.6149L5.94799 43.3765L6.31522 43.6603C6.40562 43.7303 6.48848 43.7625 6.56193 43.7568C6.63537 43.7511 6.6994 43.7152 6.75213 43.6452C6.80486 43.5752 6.82558 43.5033 6.81051 43.4314C6.79545 43.3576 6.74272 43.2876 6.65232 43.2176L6.28509 42.9338L6.52238 42.8941L5.97059 43.613L5.97247 43.6149ZM6.1382 44.4587L6.17586 43.7549L6.48848 43.9971L6.45458 44.7047L6.1382 44.4606V44.4587Z" fill="#D93023"/>
<path d="M6.51247 44.8314L6.07179 44.4909L6.10004 43.9498L5.90983 43.8041L5.63864 44.1579L5.24316 43.8514L6.29401 42.4797L6.89288 42.9414C7.01341 43.0341 7.10192 43.1362 7.1603 43.2441C7.21868 43.3557 7.24505 43.4692 7.23563 43.5846C7.22621 43.7 7.18102 43.8117 7.10004 43.9176C7.02094 44.0217 6.9249 44.0936 6.81567 44.1314C6.72904 44.1617 6.63864 44.1711 6.5426 44.1579L6.51058 44.8314H6.51247ZM6.20362 44.4284L6.39382 44.576L6.41454 44.1276C6.35051 44.1068 6.28836 44.0765 6.22433 44.0387L6.20362 44.4303V44.4284ZM6.55013 44.0254C6.62923 44.0387 6.70267 44.0311 6.77424 44.0065C6.85898 43.9763 6.93243 43.9214 6.99834 43.8363C7.06426 43.7511 7.10004 43.6641 7.10757 43.5733C7.1151 43.4825 7.09439 43.3935 7.04731 43.3046C6.99834 43.2138 6.92113 43.1249 6.81567 43.0435L6.61228 42.8865L6.5087 43.0227L6.69514 43.1665C6.79684 43.2441 6.85898 43.3292 6.87593 43.4181C6.89476 43.5108 6.87028 43.6017 6.80625 43.6868C6.74222 43.7719 6.66124 43.8173 6.56896 43.823C6.48045 43.8306 6.38064 43.7908 6.27706 43.7114L6.09062 43.5676L5.99081 43.6981L6.10945 43.789L6.11887 43.6262L6.55578 43.9649L6.55202 44.0254H6.55013ZM5.42584 43.8268L5.61416 43.9725L5.80437 43.7227L5.61605 43.5771L5.42395 43.8268H5.42584ZM6.23186 43.8854C6.24505 43.8949 6.25823 43.9044 6.2733 43.9119L6.23375 43.8798V43.8836L6.23186 43.8854ZM6.16595 43.4654L6.35239 43.6092C6.4296 43.6679 6.4974 43.6944 6.55578 43.6925C6.6104 43.6887 6.65748 43.6603 6.69891 43.6073C6.74034 43.5525 6.75541 43.4995 6.74411 43.4446C6.73281 43.3879 6.68761 43.3292 6.6104 43.2706L6.42396 43.1268L6.16407 43.4654H6.16595ZM5.86652 43.2498L5.62734 43.5638L5.89665 43.5298L5.8684 43.2498H5.86652ZM5.87405 43.2403L6.06237 43.386L6.32226 43.0473L6.13394 42.9016L5.87405 43.2403ZM6.31661 42.6633L6.13959 42.8941L6.5313 42.8297L6.31661 42.6633Z" fill="#D93023"/>
<path d="M8.15065 45.8662C8.04331 45.8 7.9548 45.7205 7.88512 45.6297C7.81544 45.5389 7.76647 45.4405 7.74011 45.3346C7.71186 45.2305 7.70621 45.1227 7.72316 45.0148C7.74011 44.907 7.77777 44.801 7.83992 44.7008C7.90207 44.6005 7.97739 44.5173 8.06779 44.4548C8.15819 44.3924 8.25423 44.3508 8.36158 44.3281C8.46892 44.3054 8.57626 44.3054 8.68926 44.3281C8.80037 44.3489 8.9096 44.3924 9.01506 44.4586C9.1224 44.5248 9.21092 44.6043 9.27871 44.6951C9.34651 44.7859 9.39547 44.8824 9.42184 44.9883C9.4482 45.0924 9.45574 45.2002 9.44067 45.3081C9.42561 45.4159 9.38794 45.5219 9.32391 45.624C9.26176 45.7243 9.18455 45.8076 9.09416 45.87C9.00376 45.9324 8.90583 45.9759 8.80037 45.9967C8.69491 46.0176 8.58756 46.0194 8.47645 45.9967C8.36534 45.9759 8.25611 45.9324 8.15065 45.8681V45.8662ZM8.31449 45.5975C8.37476 45.6354 8.4369 45.66 8.50093 45.6694C8.56497 45.6789 8.62711 45.6789 8.69114 45.6638C8.75329 45.6486 8.81167 45.6221 8.86628 45.5824C8.9209 45.5427 8.96798 45.4897 9.00753 45.4254C9.04707 45.3611 9.07344 45.2948 9.08474 45.2286C9.09604 45.1624 9.09416 45.0981 9.08097 45.0356C9.06591 44.9732 9.03954 44.9146 9.00188 44.8635C8.96233 44.8105 8.91336 44.7651 8.8531 44.7273C8.79284 44.6894 8.73069 44.6648 8.66666 44.6554C8.60263 44.644 8.54048 44.6459 8.47834 44.661C8.41619 44.6762 8.35781 44.7027 8.30319 44.7424C8.24858 44.7821 8.2015 44.8351 8.16195 44.8994C8.1224 44.9638 8.09792 45.0281 8.08662 45.0962C8.07532 45.1643 8.07532 45.2286 8.09039 45.2911C8.10545 45.3535 8.13182 45.4121 8.16949 45.4651C8.20903 45.5181 8.258 45.5635 8.31826 45.6013L8.31449 45.5975Z" fill="#D93023"/>
<path d="M8.6365 46.0762C8.58 46.0762 8.52162 46.0706 8.46512 46.0592C8.34648 46.0365 8.22972 45.9911 8.11672 45.9211C8.00373 45.8511 7.90768 45.766 7.83424 45.6676C7.76079 45.5711 7.70806 45.4633 7.67793 45.3497C7.6478 45.2362 7.64215 45.1208 7.65909 45.0035C7.67604 44.8862 7.71936 44.7727 7.78527 44.6649C7.85119 44.557 7.93405 44.4681 8.03009 44.4C8.12614 44.3319 8.23348 44.2865 8.34836 44.2619C8.46324 44.2392 8.58188 44.2373 8.70053 44.2619C8.81917 44.2846 8.93593 44.33 9.04893 44.4C9.16192 44.47 9.25797 44.5551 9.32953 44.6516C9.40297 44.7481 9.45382 44.8541 9.48395 44.9676C9.51409 45.0811 9.51974 45.1965 9.50467 45.3119C9.4896 45.4273 9.44629 45.5427 9.37849 45.6543C9.31258 45.7622 9.22972 45.8511 9.13179 45.9192C9.03574 45.9873 8.9284 46.0327 8.81352 46.0573C8.75514 46.0687 8.69676 46.0744 8.6365 46.0744V46.0762ZM8.52539 44.3773C8.47454 44.3773 8.42369 44.383 8.37473 44.3924C8.2768 44.4132 8.1864 44.4511 8.10542 44.5097C8.02444 44.5665 7.95288 44.6441 7.89638 44.7368C7.83989 44.8295 7.80222 44.9278 7.78904 45.0262C7.77397 45.1246 7.77962 45.223 7.80599 45.3195C7.83047 45.416 7.87567 45.5068 7.9397 45.59C8.00373 45.6752 8.08847 45.7489 8.1864 45.8114C8.28433 45.8719 8.38603 45.9135 8.4896 45.9325C8.5913 45.9514 8.69299 45.9514 8.78904 45.9325C8.88508 45.9135 8.97548 45.8738 9.05834 45.8152C9.1412 45.7565 9.21277 45.6808 9.26927 45.5881C9.32765 45.4935 9.36343 45.397 9.37661 45.2987C9.38979 45.2003 9.38414 45.1 9.35966 45.0054C9.33518 44.9089 9.28998 44.8181 9.22783 44.7349C9.16569 44.6516 9.08282 44.5778 8.98301 44.5154C8.8832 44.4549 8.78151 44.4132 8.67793 44.3943C8.62708 44.3849 8.57623 44.3792 8.52727 44.3792L8.52539 44.3773ZM8.58188 45.7433C8.55175 45.7433 8.52162 45.7414 8.4896 45.7357C8.41804 45.7244 8.34648 45.696 8.28056 45.6543C8.21277 45.6127 8.15627 45.5616 8.11296 45.503C8.06964 45.4443 8.03763 45.3762 8.02256 45.3062C8.00749 45.2343 8.00561 45.1606 8.01879 45.0868C8.03198 45.0111 8.06022 44.9373 8.10354 44.8673C8.14685 44.7954 8.19958 44.7368 8.26173 44.6914C8.322 44.6459 8.38979 44.6157 8.46136 44.5986C8.53104 44.5816 8.60448 44.5797 8.67604 44.5911C8.74761 44.6024 8.81917 44.6308 8.88697 44.6724C8.95476 44.7141 9.01126 44.7651 9.05458 44.8257C9.09789 44.8862 9.12991 44.9524 9.14497 45.0224C9.16004 45.0943 9.16192 45.1662 9.14874 45.2419C9.13556 45.3176 9.10731 45.3914 9.06211 45.4614C9.01879 45.5333 8.96606 45.5919 8.90392 45.6373C8.84365 45.6827 8.77774 45.713 8.70618 45.73C8.66474 45.7395 8.62331 45.7452 8.58188 45.7452V45.7433ZM8.58188 44.7122C8.54987 44.7122 8.51974 44.7159 8.48772 44.7235C8.43311 44.7368 8.38226 44.7614 8.33518 44.7954C8.2881 44.8295 8.24667 44.8768 8.21088 44.9335C8.17699 44.9903 8.15439 45.0489 8.14309 45.1076C8.13367 45.1662 8.13367 45.223 8.14685 45.276C8.16004 45.3308 8.18264 45.3781 8.21465 45.4254C8.24855 45.4708 8.29375 45.5125 8.34648 45.5446C8.39921 45.5768 8.45382 45.5995 8.50844 45.6089C8.56493 45.6184 8.61955 45.6165 8.67228 45.6033C8.72689 45.59 8.77774 45.5673 8.82294 45.5314C8.87002 45.4973 8.91145 45.45 8.94723 45.3933C8.98301 45.3365 9.00561 45.2779 9.01503 45.2192C9.02444 45.1624 9.02444 45.1057 9.01126 45.0508C8.99996 44.9978 8.97548 44.9487 8.94346 44.9032C8.90957 44.856 8.86625 44.8162 8.81164 44.7841C8.75891 44.7519 8.70429 44.7292 8.6478 44.7197C8.6252 44.7159 8.60071 44.7141 8.57812 44.7141L8.58188 44.7122Z" fill="#D93023"/>
<path d="M10.0449 46.9258L10.7248 45.4785L11.0016 45.6091L11.1353 46.9221L10.9884 46.8521L12.0713 46.1161L12.3444 46.2466L11.6702 47.6959L11.3575 47.5483L11.8095 46.5815L11.8679 46.608L11.0054 47.1926L10.8547 47.1207L10.7436 46.0745L10.8133 46.1085L10.3594 47.0734L10.0468 46.9258H10.0449Z" fill="#D93023"/>
<path d="M11.7007 47.781L11.2695 47.5767L11.6028 46.8615L11.0077 47.2645L10.7911 47.1623L10.7177 46.4604L10.39 47.1585L9.95874 46.9542L10.6932 45.3877L11.0604 45.5618L11.1715 46.6439L12.0642 46.0366L12.4295 46.2107L11.6989 47.7791L11.7007 47.781ZM11.4427 47.5142L11.6386 47.6069L12.2582 46.275L12.0774 46.188L11.1885 46.7934L11.2073 46.9731L11.7139 46.6307L11.7798 46.4907L12.0002 46.5947L11.8175 46.7177L11.4465 47.5123L11.4427 47.5142ZM10.9135 47.0753L10.9964 47.115L11.1602 47.0034L10.8909 46.8766L10.9117 47.0753H10.9135ZM10.132 46.8918L10.3279 46.9845L10.6913 46.2107L10.665 45.9647L10.8985 46.0745L10.8231 46.2334L10.8872 46.8388L11.0491 46.7291L10.9399 45.6507L10.7554 45.5636L10.132 46.8937V46.8918Z" fill="#D93023"/>
<path d="M15.1719 48.9483C14.9535 48.8878 14.8009 48.7781 14.7124 48.6229C14.622 48.4678 14.6089 48.2748 14.6729 48.0497L14.9102 47.1851L15.2661 47.2834L15.0307 48.1329C14.9893 48.2805 14.9911 48.394 15.0326 48.4754C15.074 48.5567 15.1493 48.6116 15.2586 48.6418C15.3659 48.6721 15.4601 48.6627 15.5373 48.6154C15.6145 48.5681 15.6748 48.4697 15.7143 48.3221L15.9497 47.4726L16.3 47.571L16.0608 48.4337C15.9987 48.6608 15.8895 48.8178 15.7331 48.9048C15.5768 48.9919 15.3904 49.0051 15.1719 48.9446V48.9483Z" fill="#D93023"/>
<path d="M15.4243 49.0503C15.3395 49.0503 15.2491 49.0371 15.155 49.0106C14.9214 48.9444 14.7538 48.8252 14.6559 48.6549C14.558 48.4846 14.5429 48.2746 14.6107 48.0306L14.8668 47.1035L15.347 47.2378L15.0947 48.1516C15.0589 48.2822 15.057 48.3806 15.0928 48.4468C15.1267 48.513 15.187 48.5565 15.2774 48.5811C15.3678 48.6057 15.4431 48.6 15.5052 48.5622C15.5674 48.5225 15.6182 48.4373 15.654 48.3087L15.9064 47.3949L16.3828 47.5273L16.1267 48.4544C16.0608 48.6965 15.9403 48.8687 15.767 48.9652C15.6653 49.0219 15.5504 49.0503 15.4261 49.0503H15.4243ZM15.1907 48.8857C15.3904 48.9406 15.5636 48.9292 15.703 48.8517C15.8442 48.7741 15.944 48.6284 16.0005 48.4203L16.2227 47.62L15.9968 47.5576L15.7802 48.3446C15.735 48.5092 15.6672 48.6171 15.5749 48.6757C15.4808 48.7344 15.3696 48.7457 15.2435 48.7098C15.1173 48.6757 15.0288 48.6076 14.9779 48.5092C14.9271 48.4108 14.9252 48.2841 14.9704 48.1195L15.187 47.3324L14.9572 47.2681L14.7369 48.0684C14.6785 48.2765 14.6898 48.4525 14.7708 48.5925C14.8517 48.7325 14.993 48.8308 15.1926 48.8876L15.1907 48.8857Z" fill="#D93023"/>
<path d="M17.2148 49.4136L17.4841 47.8357L17.8457 47.8981L17.5764 49.476L17.2148 49.4136ZM17.6009 49.109L17.6518 48.6833L18.5388 48.0173L18.9418 48.0873L18.1395 48.7041L17.9003 48.8857L17.599 49.1109L17.6009 49.109ZM18.2883 49.599L17.8457 48.8157L18.1282 48.5981L18.712 49.6728L18.2883 49.6009V49.599Z" fill="#D93023"/>
<path d="M18.8346 49.7579L18.2489 49.6576L17.8722 48.9898L17.7046 49.1146L17.6293 49.5517L17.1396 49.4665L17.4297 47.76L17.9193 47.8451L17.8101 48.4846L18.5219 47.9492L19.1001 48.0495L18.2564 48.6984L18.8327 49.7598L18.8346 49.7579ZM18.3299 49.5384L18.5916 49.5838L18.1528 48.776L17.9758 48.9103L18.3299 49.5384ZM17.2884 49.3606L17.5219 49.4003L17.5521 49.2263L17.5182 49.2509L17.5916 48.6473L17.6594 48.5962L17.7705 47.9511L17.537 47.9114L17.2903 49.3606H17.2884ZM17.7781 48.6719L17.7348 48.9292L17.8063 48.8762L17.763 48.7987L18.1509 48.4998L18.1961 48.5811L18.7875 48.127L18.5577 48.0873L17.78 48.6719H17.7781Z" fill="#D93023"/>
<path d="M19.8777 49.8016L19.9907 48.2048L20.6781 48.254C20.8212 48.2635 20.9417 48.2956 21.0415 48.3505C21.1413 48.4035 21.2167 48.4773 21.2656 48.5662C21.3165 48.657 21.3353 48.763 21.3278 48.8821C21.3202 49.0013 21.2845 49.1016 21.2223 49.183C21.1602 49.2643 21.0754 49.3249 20.97 49.3627C20.8645 49.4005 20.7402 49.4157 20.5971 49.4043L20.1131 49.3703L20.2882 49.2208L20.2449 49.8281L19.8777 49.8016ZM20.2863 49.2624L20.1357 49.077L20.599 49.1111C20.712 49.1186 20.7986 49.0997 20.8589 49.0543C20.9191 49.0089 20.9511 48.9427 20.9568 48.8557C20.9624 48.7667 20.9398 48.6967 20.8871 48.6438C20.8344 48.5908 20.7515 48.5605 20.6385 48.553L20.1752 48.5189L20.3504 48.3543L20.2863 49.2605V49.2624ZM20.889 49.8735L20.5331 49.2662L20.9266 49.2946L21.2882 49.9019L20.8909 49.8735H20.889Z" fill="#D93023"/>
<path d="M21.4051 49.9756L20.8495 49.9359L20.5765 49.4705L20.3373 49.4534L20.3053 49.898L19.8081 49.8621L19.9305 48.1348L20.6838 48.1896C20.8345 48.201 20.9644 48.235 21.0718 48.2937C21.1829 48.3523 21.2676 48.4356 21.3222 48.5359C21.3787 48.6361 21.4013 48.7553 21.3919 48.8878C21.3825 49.0183 21.3429 49.1318 21.2733 49.2245C21.2187 49.2983 21.1471 49.3551 21.0605 49.3967L21.4051 49.9775V49.9756ZM20.9267 49.811L21.1659 49.828L20.938 49.4421C20.874 49.4591 20.8043 49.4705 20.729 49.4724L20.9267 49.8091V49.811ZM19.9475 49.741L20.1848 49.758L20.2074 49.444L19.9701 49.427L19.9475 49.741ZM19.9983 49.0145L19.9701 49.408L20.1753 49.2321L19.9983 49.0145ZM20.6518 49.3437C20.6687 49.3437 20.6857 49.3437 20.7026 49.3437L20.6499 49.3399V49.3437H20.6518ZM20.3486 49.3229L20.4974 49.3343L20.4145 49.1924L20.9644 49.2321L20.9964 49.2851C21.0699 49.251 21.1264 49.2056 21.1716 49.1451C21.2262 49.0732 21.2582 48.9842 21.2638 48.8802C21.2714 48.7723 21.2526 48.6778 21.2092 48.6002C21.1659 48.5207 21.1 48.4564 21.0115 48.4091C20.9211 48.3599 20.8081 48.3296 20.6744 48.3202L20.4202 48.3013L20.4089 48.4715L20.6443 48.4886C20.7742 48.498 20.8703 48.5359 20.9343 48.5983C21.0002 48.6645 21.0303 48.7534 21.0228 48.8594C21.0153 48.9653 20.9738 49.0486 20.8985 49.1053C20.8269 49.1602 20.7234 49.1829 20.5953 49.1753L20.3599 49.1583L20.3486 49.321V49.3229ZM20.3693 49.0296L20.6047 49.0467C20.7008 49.0524 20.7742 49.0391 20.8194 49.0032C20.8646 48.9691 20.8872 48.9199 20.8929 48.8518C20.8985 48.7837 20.8816 48.7307 20.842 48.691C20.8006 48.6494 20.7309 48.6248 20.6348 48.6191L20.3994 48.6021L20.3693 49.0278V49.0296ZM20.0021 49.0032L20.2394 49.0202L20.2695 48.5945L20.0322 48.5775L20.0021 49.0032ZM20.0529 48.2767L20.0322 48.5661L20.3222 48.2956L20.0529 48.2767Z" fill="#D93023"/>
<path d="M22.3354 49.9319L23.004 48.3124L23.3675 48.303L24.1208 49.8846L23.7347 49.8941L23.1151 48.4978L23.2601 48.4941L22.7121 49.9225L22.3354 49.9319ZM22.682 49.58L22.7724 49.2962L23.5916 49.2754L23.6989 49.5535L22.682 49.58Z" fill="#D93023"/>
<path d="M22.2375 50.0002L22.9606 48.2501L23.4089 48.2388L24.2243 49.9491L23.6932 49.9623L23.5426 49.6237L22.891 49.6407L22.7573 49.9869L22.2356 50.0002H22.2375ZM23.0209 48.4431L22.4352 49.8639L22.6687 49.8583L22.7516 49.6445L22.5934 49.6483L22.7252 49.232L22.9117 49.2264L23.1245 48.6739L23.0228 48.4431H23.0209ZM23.6838 49.618L23.7761 49.828L24.019 49.8223L23.3542 48.4299L23.262 48.6701L23.5011 49.2112L23.633 49.2074L23.7893 49.6161L23.68 49.6199L23.6838 49.618ZM22.8213 49.3588L22.7723 49.5101H22.8025L22.8608 49.3569H22.8213V49.3588ZM23.0021 49.355L22.9437 49.5064L23.4879 49.4912L23.422 49.3418L23.0021 49.3531V49.355ZM23.1998 48.8423L23.0529 49.2226L23.3637 49.215L23.1979 48.8423H23.1998ZM23.0492 48.3769L23.0266 48.4355L23.3561 48.4261L23.3298 48.3693L23.0492 48.3769Z" fill="#D93023"/>
<path d="M25.2771 49.7768L25.1057 48.1857L25.4729 48.146L25.6443 49.7371L25.2771 49.7768Z" fill="#D93023"/>
<path d="M25.2183 49.8489L25.0337 48.1272L25.5309 48.0742L25.7154 49.7959L25.2183 49.8489ZM25.1768 48.2445L25.3331 49.7051L25.5704 49.6786L25.4141 48.218L25.1768 48.2445Z" fill="#D93023"/>
<path d="M27.0019 49.5556L26.6987 47.9853L26.9982 47.9267L28.1394 48.8783L27.9944 48.9067L27.7759 47.7753L28.1338 47.7053L28.437 49.2756L28.1394 49.3343L26.9963 48.3826L27.1413 48.3543L27.3597 49.4856L27.0019 49.5556Z" fill="#D93023"/>
<path d="M26.949 49.6332L26.6213 47.9342L27.0149 47.8567L27.8605 48.5624L27.6986 47.7242L28.1844 47.6296L28.5121 49.3286L28.1204 49.4043L28.0959 49.3854L27.2729 48.7005L27.4349 49.5386L26.949 49.6332ZM26.7739 48.0364L27.0526 49.4799L27.2824 49.4345L27.1147 48.568L26.8473 48.3448L27.192 48.2767L27.2334 48.4961L28.1562 49.2643L28.3596 49.2245L28.0808 47.781L27.8511 47.8264L28.0187 48.6929L28.2861 48.9162L27.9415 48.9824L27.9001 48.7629L26.981 47.9967L26.7758 48.0364H26.7739Z" fill="#D93023"/>
<path d="M30.0418 48.5489L30.8723 48.2992L30.9571 48.5849L29.7763 48.9387L29.3206 47.4043L30.4731 47.0581L30.5578 47.3438L29.7556 47.5841L30.0418 48.5471V48.5489ZM29.829 47.9265L30.5635 47.707L30.6445 47.9833L29.91 48.2046L29.829 47.9284V47.9265Z" fill="#D93023"/>
<path d="M29.7332 49.0201L29.2397 47.3609L30.5166 46.9768L30.639 47.3874L29.8367 47.6276L29.8989 47.8357L30.607 47.6238L30.7256 48.0249L30.0175 48.2368L30.0853 48.4658L30.9158 48.216L31.0382 48.6266L29.7313 49.0182L29.7332 49.0201ZM29.4017 47.4498L29.8198 48.8574L30.8763 48.5395L30.8292 48.3806L29.9987 48.6304L29.8932 48.2747L29.8669 48.2822L29.7482 47.8812L29.7746 47.8736L29.6748 47.5406L30.477 47.3003L30.43 47.1414L29.4017 47.4498ZM29.9365 47.9625L29.9817 48.1139L30.5655 47.9379L30.5203 47.7866L29.9365 47.9625Z" fill="#D93023"/>
<path d="M33.6728 47.5277L32.9949 46.0804L33.3282 45.9233L33.88 47.0982L34.6032 46.7558L34.7312 47.0282L33.6747 47.5277H33.6728Z" fill="#D93023"/>
<path d="M33.6407 47.6145L32.9062 46.048L33.3582 45.8342L33.91 47.0091L34.6332 46.6667L34.8177 47.0583L33.6426 47.6145H33.6407ZM33.0795 46.1105L33.7029 47.4405L34.6426 46.9959L34.5692 46.8407L33.846 47.1832L33.2942 46.0083L33.0776 46.1105H33.0795Z" fill="#D93023"/>
<path d="M35.6278 46.5608L35.4263 44.8202L35.7408 44.6348L37.1645 45.647L36.8312 45.8456L35.6127 44.928L35.737 44.8542L35.9498 46.3697L35.624 46.5626L35.6278 46.5608ZM35.7596 46.084L35.7012 45.7926L36.4056 45.3726L36.6334 45.5637L35.7577 46.084H35.7596Z" fill="#D93023"/>
<path d="M35.575 46.6685L35.3584 44.7861L35.7445 44.5571L37.285 45.6526L36.8292 45.925L36.5335 45.7017L35.9723 46.0347L36.0232 46.4037L35.575 46.6704V46.6685ZM35.5053 44.9261L35.6823 46.4528L35.8838 46.3337L35.8518 46.1066L35.7162 46.188L35.6296 45.7604L35.7897 45.6658L35.7068 45.0793L35.5053 44.9279V44.9261ZM35.7746 45.8247L35.8066 45.9818L35.8311 45.9666L35.8085 45.8058L35.7746 45.8266V45.8247ZM35.929 45.732L35.9516 45.8928L36.4187 45.6147L36.2887 45.5163L35.9271 45.7301L35.929 45.732ZM36.6541 45.628L36.8367 45.7661L37.0458 45.6412L35.7915 44.7482L35.8273 45.0036L36.3 45.3593L36.4149 45.2912L36.7501 45.5712L36.656 45.628H36.6541ZM35.8537 45.1871L35.9102 45.592L36.1776 45.4331L35.8537 45.189V45.1871ZM35.4978 44.8542L35.5053 44.9166L35.7897 44.7463L35.7388 44.7104L35.4978 44.8542Z" fill="#D93023"/>
<path d="M38.145 44.9827L37.1978 43.6962L37.4426 43.5146L38.8795 43.8797L38.7608 43.9687L38.0791 43.0435L38.371 42.8259L39.3183 44.1124L39.0753 44.2941L37.6347 43.9308L37.7533 43.8419L38.435 44.7689L38.1431 44.9865L38.145 44.9827Z" fill="#D93023"/>
<path d="M38.1319 45.0735L37.1074 43.6829L37.4295 43.4445L38.4935 43.7151L37.9888 43.0283L38.3861 42.7332L39.4106 44.1256L39.0905 44.364L38.0227 44.0953L38.5293 44.7821L38.1319 45.0773V45.0735ZM37.2882 43.7094L38.1583 44.89L38.3466 44.75L37.8231 44.0405L37.486 43.9553L37.7684 43.7453L37.9003 43.9251L39.0622 44.2183L39.228 44.0953L38.3579 42.9148L38.1696 43.0548L38.6931 43.7643L39.0302 43.8494L38.7496 44.0594L38.6178 43.8797L37.4577 43.5864L37.2901 43.7113L37.2882 43.7094Z" fill="#D93023"/>
<path d="M40.3917 43.2213L39.3145 42.0407L39.8474 41.5488C39.9755 41.4315 40.1092 41.352 40.2523 41.3123C40.3936 41.2726 40.5329 41.2707 40.6666 41.3066C40.8022 41.3445 40.9246 41.422 41.0339 41.5431C41.1431 41.6623 41.209 41.791 41.2354 41.9291C41.2617 42.0672 41.2467 42.2072 41.1939 42.3453C41.1412 42.4834 41.0508 42.6121 40.9227 42.7294L40.3898 43.2213H40.3917ZM40.4595 42.7464L40.7081 42.5175C40.7871 42.4456 40.8399 42.368 40.8719 42.2847C40.902 42.2015 40.9077 42.1183 40.8907 42.0331C40.8719 41.948 40.8286 41.8704 40.7627 41.7947C40.693 41.7191 40.6195 41.6699 40.5367 41.6434C40.4538 41.6169 40.3728 41.6169 40.2862 41.6396C40.1996 41.6623 40.1205 41.7096 40.0414 41.7834L39.7928 42.0123L40.4595 42.7445V42.7464Z" fill="#D93023"/>
<path d="M40.388 43.314L39.2241 42.037L39.806 41.5016C39.9398 41.3786 40.0848 41.2935 40.2373 41.2499C40.3898 41.2064 40.5424 41.2045 40.6874 41.2443C40.8343 41.284 40.968 41.3691 41.0848 41.4997C41.2015 41.6264 41.2731 41.7683 41.3013 41.9178C41.3296 42.0673 41.3145 42.2205 41.258 42.37C41.2015 42.5175 41.1055 42.6556 40.9699 42.7786L40.388 43.314ZM39.4068 42.0464L40.3955 43.1305L40.8814 42.684C41 42.5743 41.0866 42.4532 41.1356 42.3246C41.1846 42.1978 41.1959 42.0691 41.1733 41.9443C41.1507 41.8194 41.0866 41.7002 40.9887 41.5905C40.887 41.4808 40.774 41.407 40.6516 41.3729C40.5292 41.3389 40.4011 41.3408 40.2712 41.3786C40.1394 41.4164 40.0132 41.4921 39.8927 41.6018L39.4068 42.0483V42.0464ZM40.4539 42.8392L39.6987 42.0105L39.9944 41.7381C40.0791 41.6586 40.1714 41.6056 40.2656 41.581C40.3616 41.5545 40.4576 41.5564 40.5518 41.5848C40.6441 41.6132 40.7288 41.6699 40.806 41.7532C40.8814 41.8364 40.9303 41.9273 40.9511 42.0218C40.9718 42.1183 40.9642 42.2148 40.9303 42.3094C40.8964 42.4021 40.8362 42.4892 40.7495 42.5667L40.4539 42.8392ZM39.8833 42.02L40.4633 42.6556L40.6629 42.4702C40.7326 42.4059 40.7816 42.3359 40.8098 42.264C40.8362 42.1921 40.8418 42.1221 40.8249 42.0502C40.8098 41.9764 40.7721 41.9083 40.7119 41.8421C40.6497 41.7759 40.5857 41.7324 40.516 41.7097C40.4463 41.6889 40.3767 41.687 40.3032 41.7078C40.2279 41.7286 40.1544 41.7721 40.0848 41.8364L39.8851 42.0218L39.8833 42.02Z" fill="#D93023"/>
<path d="M7.83592 39.9159C7.50824 39.6264 7.25589 39.2859 7.07886 38.8924C6.90372 38.5007 6.80767 38.0883 6.79449 37.6569C6.77943 37.2256 6.84911 36.7961 6.99976 36.3723C7.15231 35.9485 7.38771 35.5493 7.71163 35.1823C8.01671 34.8323 8.36511 34.5579 8.75871 34.3593C9.15231 34.1606 9.56285 34.0414 9.99223 34.0036C10.4216 33.9677 10.8435 34.015 11.2615 34.1436C11.6777 34.2742 12.0638 34.4955 12.416 34.8058C12.8924 35.2258 13.2107 35.6874 13.3745 36.1907C13.5365 36.6939 13.5572 37.1896 13.4367 37.6758L12.2258 37.5718C12.318 37.2048 12.3086 36.8529 12.1937 36.5142C12.0807 36.1774 11.8868 35.888 11.6156 35.6496C11.4009 35.4604 11.1655 35.3336 10.9113 35.2693C10.6551 35.205 10.3934 35.1955 10.1278 35.239C9.8604 35.2844 9.60428 35.379 9.3557 35.5228C9.10711 35.6685 8.88112 35.8558 8.6815 36.0847C8.46869 36.3288 8.30862 36.5842 8.20315 36.8547C8.09769 37.1253 8.04496 37.3977 8.04685 37.6702C8.04685 37.9426 8.10146 38.2037 8.20504 38.4515C8.30862 38.6994 8.47057 38.9207 8.68903 39.1137C8.94703 39.3407 9.25212 39.4921 9.60428 39.5659C9.95645 39.6397 10.3482 39.6378 10.7775 39.5602L9.92444 40.5346C9.09958 40.6197 8.40466 40.4135 7.83781 39.914L7.83592 39.9159ZM10.9357 39.2329L9.91502 38.3323L10.5478 37.6077L12.3821 39.2253L10.0939 41.8457L9.28037 41.1267L10.9357 39.2329Z" fill="#D93023"/>
<path d="M10.1127 42.1182L9.00912 41.1438L9.36128 40.7408C8.7304 40.6992 8.17673 40.4722 7.70968 40.0597C7.36128 39.7532 7.0901 39.3862 6.90554 38.9719C6.7191 38.5575 6.6174 38.1186 6.60422 37.6627C6.58915 37.2067 6.6626 36.7507 6.82079 36.3061C6.98087 35.8596 7.23134 35.4377 7.56844 35.0537C7.88859 34.6866 8.26147 34.3953 8.6739 34.1853C9.08821 33.9772 9.52512 33.8504 9.9771 33.8107C10.4291 33.7728 10.8792 33.822 11.3199 33.9582C11.7624 34.0983 12.1748 34.3347 12.544 34.6602C13.0449 35.101 13.3858 35.5948 13.5571 36.1302C13.7304 36.6675 13.753 37.2029 13.6231 37.7213L13.5835 37.8802L11.9828 37.7421L12.0392 37.5227C12.124 37.1897 12.1146 36.8794 12.0129 36.5748C11.9112 36.2721 11.7342 36.0091 11.4912 35.7934C11.301 35.625 11.092 35.5115 10.8679 35.4567C10.6381 35.398 10.4008 35.3885 10.1617 35.4283C9.9206 35.468 9.68332 35.5569 9.45356 35.6894C9.22381 35.8237 9.01288 35.9996 8.82833 36.2115C8.63059 36.4386 8.48181 36.6788 8.38388 36.9248C8.28784 37.1707 8.23887 37.4205 8.24076 37.6683C8.24264 37.9143 8.2916 38.1527 8.38388 38.3759C8.47428 38.5954 8.62117 38.794 8.81703 38.9681C9.04867 39.1724 9.32738 39.3086 9.64377 39.3749C9.91119 39.4316 10.2106 39.4392 10.5345 39.3994L10.6683 39.2462L9.64754 38.3456L10.5345 37.3297L12.6588 39.2027L10.1165 42.1125L10.1127 42.1182ZM9.55149 41.1098L10.0769 41.5733L12.1108 39.2443L10.5647 37.8802L10.1843 38.3154L11.205 39.2159L11.1315 39.3011L11.2822 39.2746L10.0166 40.7219L9.94132 40.7295C9.92061 40.7314 9.89989 40.7333 9.87917 40.7352L9.55149 41.1098ZM10.2671 34.1872C10.1805 34.1872 10.0939 34.191 10.0072 34.1985C9.6061 34.2345 9.21439 34.3461 8.84528 34.5334C8.47804 34.7188 8.14471 34.9818 7.85658 35.311C7.55337 35.6572 7.3255 36.0375 7.18237 36.4386C7.03925 36.8378 6.97334 37.2445 6.98652 37.6513C6.9997 38.0562 7.0901 38.4478 7.25582 38.8148C7.41966 39.18 7.65695 39.5016 7.96392 39.7722C8.44603 40.196 9.01477 40.3927 9.6965 40.3605L10.173 39.8157C9.95827 39.8176 9.75488 39.7986 9.56279 39.7589C9.18049 39.6795 8.84151 39.5111 8.56091 39.2632C8.31985 39.0494 8.14094 38.8035 8.02607 38.5311C7.91307 38.2624 7.85469 37.9748 7.85281 37.6778C7.85093 37.3789 7.90742 37.0799 8.0223 36.7905C8.13529 36.5029 8.30667 36.2248 8.53454 35.9637C8.74735 35.7196 8.99028 35.5172 9.2577 35.3621C9.52701 35.2069 9.80949 35.1029 10.0957 35.0556C10.3895 35.0064 10.6777 35.0196 10.9583 35.0896C11.2426 35.1596 11.5063 35.3015 11.7417 35.5115C12.0374 35.7726 12.2502 36.0905 12.3745 36.4594C12.4762 36.7621 12.5044 37.0799 12.4554 37.4035L13.2841 37.4735C13.3556 37.0762 13.3236 36.6675 13.1899 36.2551C13.0392 35.7877 12.736 35.3507 12.2878 34.9553C11.9583 34.6639 11.5948 34.4539 11.2031 34.331C10.8961 34.2364 10.5835 34.1872 10.269 34.1872H10.2671Z" fill="#D93023"/>
<path d="M17.3759 44.8389C16.8938 44.7254 16.4795 44.5305 16.1311 44.2524C15.7827 43.9743 15.5059 43.6432 15.2987 43.2572C15.0935 42.8732 14.9579 42.4626 14.8976 42.0256C14.8373 41.5905 14.8543 41.161 14.9522 40.741C15.0539 40.302 15.2328 39.901 15.4908 39.5396C15.7469 39.1782 16.0558 38.8755 16.4155 38.6296C16.7752 38.3836 17.1726 38.2152 17.6057 38.1244C18.0407 38.0336 18.4908 38.0431 18.9598 38.1528C19.4343 38.2644 19.8449 38.4631 20.1933 38.7469C20.5398 39.0307 20.8147 39.3674 21.0181 39.7553C21.2215 40.1431 21.3533 40.5518 21.4136 40.985C21.4758 41.4183 21.4569 41.844 21.359 42.2659C21.2592 42.6991 21.0803 43.0964 20.8279 43.4597C20.5737 43.821 20.2686 44.1256 19.9089 44.3716C19.5492 44.6175 19.1518 44.784 18.7187 44.8711C18.2856 44.96 17.8373 44.9486 17.3741 44.8389H17.3759ZM16.2498 41.0437C16.1839 41.3294 16.1631 41.615 16.1857 41.9007C16.2102 42.1864 16.2799 42.4551 16.3948 42.701C16.5097 42.947 16.6716 43.1589 16.8825 43.3348C17.0916 43.5108 17.3477 43.6356 17.649 43.7075C17.9579 43.7794 18.246 43.7813 18.5172 43.7113C18.7884 43.6413 19.0275 43.5183 19.2385 43.3424C19.4494 43.1664 19.6264 42.9564 19.7714 42.7124C19.9164 42.4683 20.02 42.2129 20.0822 41.9461C20.1481 41.6623 20.1669 41.3767 20.1405 41.0929C20.1123 40.8091 20.0407 40.5442 19.9259 40.2964C19.811 40.0504 19.649 39.8385 19.4381 39.6626C19.2291 39.4847 18.9767 39.3636 18.681 39.2936C18.3665 39.2199 18.0765 39.218 17.8091 39.2899C17.5417 39.3599 17.3025 39.4828 17.0935 39.655C16.8844 39.8272 16.7074 40.0353 16.5624 40.2756C16.4193 40.5158 16.3157 40.7731 16.2517 41.0456L16.2498 41.0437Z" fill="#D93023"/>
<path d="M18.1312 45.1225C17.8694 45.1225 17.602 45.0904 17.3327 45.0279C16.8261 44.9088 16.3817 44.6987 16.0126 44.4036C15.6453 44.1104 15.3497 43.7566 15.1312 43.3498C14.9146 42.9449 14.7734 42.5098 14.7094 42.0538C14.6453 41.596 14.6642 41.14 14.7677 40.6992C14.8751 40.2357 15.0672 39.8081 15.3365 39.4297C15.6039 39.0532 15.9316 38.7297 16.3101 38.4724C16.6886 38.2132 17.1124 38.0335 17.57 37.9389C18.0295 37.8424 18.5135 37.8537 19.0069 37.9691C19.5097 38.0883 19.9504 38.3002 20.3177 38.601C20.683 38.8981 20.9768 39.2594 21.1896 39.67C21.4005 40.073 21.5418 40.5081 21.6058 40.9622C21.6717 41.4162 21.651 41.8703 21.5474 42.3149C21.4438 42.7671 21.2536 43.1909 20.9862 43.5749C20.7188 43.9552 20.393 44.2787 20.0163 44.5341C19.6359 44.7933 19.2122 44.9712 18.7564 45.0639C18.5512 45.1055 18.3421 45.1263 18.1293 45.1263L18.1312 45.1225ZM18.2065 38.2567C18.0163 38.2567 17.8299 38.2756 17.6472 38.3135C17.2386 38.3986 16.8619 38.5575 16.5248 38.7883C16.1839 39.0211 15.8902 39.3105 15.6491 39.6511C15.408 39.9897 15.2386 40.37 15.1406 40.7843C15.0483 41.1798 15.0314 41.5884 15.0879 41.999C15.1444 42.4095 15.2725 42.803 15.4664 43.1663C15.6604 43.5276 15.9222 43.8417 16.248 44.1009C16.5738 44.3601 16.9674 44.5455 17.4175 44.6496C17.8506 44.7517 18.2743 44.7631 18.6792 44.6798C19.086 44.5985 19.4627 44.4396 19.7998 44.2106C20.1369 43.9798 20.4306 43.6903 20.6698 43.3479C20.909 43.0055 21.0785 42.6271 21.1708 42.2222C21.263 41.8249 21.2819 41.4181 21.2216 41.0114C21.1632 40.6008 21.037 40.2092 20.845 39.844C20.6548 39.4789 20.3949 39.1611 20.0691 38.8962C19.747 38.6332 19.3591 38.4459 18.9146 38.34C18.6736 38.2832 18.4344 38.2548 18.2028 38.2548L18.2065 38.2567ZM18.103 43.9552C17.941 43.9552 17.7753 43.9363 17.6039 43.8966C17.2725 43.819 16.9881 43.679 16.7564 43.4841C16.5248 43.2893 16.3459 43.0528 16.2197 42.7841C16.0954 42.5192 16.0201 42.2298 15.9937 41.9195C15.9674 41.6168 15.99 41.3065 16.0615 41.0019C16.1293 40.7106 16.2404 40.4324 16.3949 40.177C16.5493 39.9178 16.7433 39.6927 16.9674 39.5073C17.199 39.3162 17.4645 39.18 17.7564 39.1043C18.0502 39.0248 18.376 39.0267 18.7207 39.1081C19.0465 39.1857 19.3289 39.3238 19.5587 39.5186C19.7885 39.7116 19.9693 39.9462 20.0954 40.2168C20.2178 40.4797 20.2969 40.7692 20.3271 41.0757C20.3572 41.3822 20.3365 41.6906 20.2649 41.9933C20.199 42.279 20.086 42.5552 19.9335 42.8144C19.779 43.0755 19.5851 43.3044 19.3591 43.4936C19.1274 43.6866 18.86 43.8247 18.5644 43.9022C18.4156 43.9401 18.263 43.959 18.103 43.959V43.9552ZM16.4363 41.0889C16.3741 41.3557 16.3553 41.6244 16.376 41.8873C16.3986 42.1503 16.4627 42.3982 16.5681 42.6214C16.6698 42.8409 16.8167 43.032 17.005 43.1909C17.1896 43.346 17.4212 43.4576 17.6924 43.522C17.9693 43.5863 18.231 43.5882 18.4683 43.5257C18.7094 43.4633 18.9278 43.3517 19.1143 43.1947C19.3064 43.0338 19.4721 42.8371 19.6039 42.6138C19.7376 42.3887 19.8355 42.1503 19.892 41.9025C19.9523 41.6414 19.9711 41.3746 19.9448 41.1116C19.9184 40.8506 19.8525 40.6027 19.747 40.3795C19.6453 40.16 19.4984 39.9689 19.3101 39.8119C19.1237 39.6549 18.9015 39.547 18.6322 39.4827C18.3497 39.4165 18.0879 39.4146 17.8544 39.477C17.6152 39.5394 17.4005 39.6511 17.2122 39.8062C17.0201 39.9632 16.8563 40.1562 16.7244 40.3757C16.5907 40.5989 16.4947 40.8392 16.4363 41.0889Z" fill="#D93023"/>
<path d="M28.3354 44.663C27.8589 44.7917 27.4013 44.8182 26.9625 44.7406C26.5237 44.663 26.1245 44.5022 25.7591 44.262C25.3957 44.0217 25.0849 43.7246 24.8232 43.369C24.5633 43.0152 24.3768 42.6273 24.2638 42.2111C24.1471 41.7741 24.1151 41.337 24.1697 40.8962C24.2243 40.4554 24.3524 40.0429 24.5539 39.6532C24.7535 39.2654 25.0247 38.9286 25.3637 38.641C25.7026 38.3534 26.1038 38.1472 26.5689 38.0205C27.0397 37.8918 27.4955 37.871 27.9343 37.9542C28.375 38.0394 28.7742 38.204 29.1358 38.448C29.4974 38.6921 29.8081 38.991 30.0661 39.341C30.326 39.6929 30.5105 40.077 30.6235 40.4951C30.7384 40.9246 30.7723 41.3597 30.7196 41.7987C30.6669 42.2376 30.5407 42.6519 30.3411 43.0398C30.1414 43.4276 29.8702 43.7644 29.5294 44.0482C29.1904 44.332 28.7912 44.5363 28.3316 44.6611L28.3354 44.663ZM25.5501 41.8611C25.6254 42.143 25.7422 42.4041 25.9004 42.6443C26.0567 42.8865 26.245 43.0871 26.4616 43.2479C26.6782 43.4106 26.9211 43.5184 27.1885 43.5733C27.4559 43.6282 27.7403 43.6168 28.0397 43.5336C28.3448 43.4503 28.6009 43.3141 28.8043 43.1211C29.0077 42.9319 29.1621 42.7087 29.2638 42.4533C29.3655 42.1979 29.4239 41.9292 29.4352 41.6454C29.4465 41.3616 29.4183 41.0873 29.3467 40.8224C29.2714 40.5405 29.1527 40.2794 28.9945 40.0429C28.8345 39.8064 28.6461 39.6078 28.4296 39.4451C28.213 39.2843 27.9682 39.1745 27.7026 39.1197C27.4352 39.0648 27.1546 39.0762 26.8608 39.1575C26.5501 39.2427 26.2921 39.3808 26.0906 39.57C25.8891 39.7592 25.7384 39.9805 25.6348 40.2321C25.5313 40.4857 25.4748 40.7505 25.4616 41.0324C25.4484 41.3124 25.4785 41.5887 25.552 41.8592L25.5501 41.8611Z" fill="#D93023"/>
<path d="M27.4634 44.9751C27.2826 44.9751 27.1037 44.9599 26.9285 44.9278C26.469 44.8464 26.0397 44.6762 25.6536 44.4207C25.2732 44.1691 24.9417 43.8532 24.6705 43.4823C24.3975 43.1115 24.1997 42.6991 24.0811 42.2602C23.9568 41.8004 23.9248 41.3331 23.9813 40.8715C24.0397 40.4117 24.1752 39.9709 24.3843 39.5641C24.5971 39.1536 24.8852 38.7941 25.2412 38.4933C25.6009 38.1906 26.0302 37.9674 26.5199 37.8349C27.0171 37.6987 27.5048 37.676 27.9719 37.7649C28.4351 37.8557 28.8645 38.0317 29.2449 38.289C29.6235 38.5444 29.9511 38.8604 30.2223 39.2274C30.4954 39.5982 30.6931 40.0088 30.8118 40.4458C30.9342 40.898 30.9681 41.3615 30.9135 41.8231C30.8589 42.2829 30.7252 42.7237 30.5142 43.1304C30.3033 43.5391 30.0152 43.8986 29.6555 44.1975C29.2958 44.4983 28.8683 44.7178 28.3862 44.8483C28.0717 44.9335 27.7647 44.9751 27.4653 44.9751H27.4634ZM27.4069 38.0979C27.1508 38.0979 26.8871 38.1338 26.6216 38.2057C26.1865 38.3249 25.8061 38.5198 25.4897 38.7885C25.1715 39.0552 24.9154 39.3768 24.727 39.742C24.5387 40.109 24.4163 40.5044 24.3636 40.9188C24.3127 41.3312 24.341 41.7474 24.4521 42.158C24.5575 42.5515 24.7365 42.9204 24.9794 43.2515C25.2242 43.5864 25.5218 43.8702 25.8664 44.0972C26.2073 44.3224 26.5877 44.4737 26.9963 44.5475C27.4031 44.6194 27.8363 44.5967 28.2845 44.4737C28.7139 44.3564 29.0924 44.1634 29.4088 43.8986C29.7289 43.6318 29.985 43.314 30.1734 42.9507C30.3617 42.5837 30.4841 42.1902 30.5331 41.7758C30.582 41.3634 30.5519 40.949 30.4427 40.5442C30.3372 40.1525 30.1602 39.7874 29.9154 39.4544C29.6705 39.1233 29.373 38.8376 29.0321 38.6068C28.695 38.3779 28.3146 38.2228 27.9003 38.1414C27.7383 38.1111 27.5745 38.096 27.4069 38.096V38.0979ZM27.5236 43.8002C27.3975 43.8002 27.2732 43.7869 27.1508 43.7623C26.8551 43.6999 26.5839 43.5788 26.3466 43.401C26.1112 43.2269 25.9059 43.0056 25.7383 42.7483C25.5726 42.4948 25.4464 42.211 25.3636 41.9101C25.2864 41.6207 25.2525 41.3236 25.2656 41.0247C25.2788 40.7239 25.3429 40.4325 25.454 40.1601C25.567 39.8839 25.7346 39.6379 25.9549 39.4298C26.1809 39.2179 26.4671 39.0647 26.8061 38.972C27.1263 38.8849 27.4389 38.8717 27.7365 38.9322C28.0321 38.9947 28.3014 39.1139 28.5406 39.2917C28.7741 39.4658 28.9794 39.6833 29.1508 39.9369C29.3221 40.1923 29.4483 40.4723 29.5293 40.7731C29.6046 41.055 29.6366 41.3501 29.6253 41.6528C29.6122 41.9537 29.55 42.2469 29.4408 42.5231C29.3278 42.805 29.1583 43.0529 28.9342 43.261C28.7082 43.4729 28.4238 43.6261 28.0886 43.7169C27.8946 43.7699 27.7063 43.7964 27.5218 43.7964L27.5236 43.8002ZM25.7365 41.8099C25.808 42.0729 25.9172 42.3169 26.0623 42.5383C26.2054 42.7596 26.3786 42.945 26.5783 43.0926C26.7703 43.2364 26.9907 43.3348 27.2317 43.384C27.469 43.4332 27.7252 43.4218 27.9926 43.348C28.2675 43.2742 28.4973 43.1494 28.6762 42.981C28.8589 42.8107 28.9982 42.6102 29.0886 42.3812C29.1828 42.1447 29.2355 41.895 29.2449 41.6377C29.2562 41.3747 29.228 41.1174 29.1621 40.8753C29.0924 40.6161 28.9813 40.372 28.8344 40.1525C28.6875 39.935 28.5123 39.7496 28.3146 39.602C28.1206 39.4582 27.9003 39.3598 27.663 39.3106C27.4257 39.2633 27.1715 39.2747 26.9097 39.3447C26.631 39.4204 26.3993 39.5452 26.2204 39.7117C26.0415 39.882 25.9041 40.0825 25.8118 40.3058C25.7176 40.5366 25.6649 40.7844 25.6517 41.0417C25.6404 41.3009 25.6687 41.5582 25.7365 41.808V41.8099Z" fill="#D93023"/>
<path d="M35.7157 41.2253L31.115 36.2685L32.9078 34.5884C33.4446 34.0852 33.9963 33.7749 34.5632 33.6576C35.1301 33.5403 35.6781 33.5838 36.2054 33.79C36.7346 33.9943 37.2092 34.3254 37.6329 34.7814C38.0999 35.2846 38.405 35.8163 38.5519 36.3744C38.6988 36.9344 38.6856 37.4869 38.5105 38.0298C38.3372 38.5766 38.002 39.0818 37.5067 39.5453L35.7139 41.2234L35.7157 41.2253ZM36.6687 35.6857C36.3711 35.366 36.051 35.1371 35.7082 35.0009C35.3655 34.8646 35.0208 34.8306 34.6762 34.8968C34.3316 34.963 34.0039 35.1428 33.6931 35.4322L32.8589 36.2136L35.8909 39.481L36.7252 38.6996C37.0397 38.4044 37.2412 38.0847 37.3278 37.7366C37.4144 37.3885 37.3975 37.0404 37.2807 36.6847C37.1621 36.329 36.9606 35.996 36.6705 35.6838L36.6687 35.6857Z" fill="#D93023"/>
<path d="M35.7043 41.4977L30.8418 36.259L32.7759 34.4484C33.339 33.9224 33.9265 33.5932 34.5254 33.4703C35.1262 33.3454 35.7156 33.3927 36.2768 33.6122C36.8286 33.8259 37.3333 34.176 37.7759 34.6527C38.2618 35.1768 38.5876 35.7406 38.7401 36.329C38.8964 36.923 38.8813 37.5152 38.6968 38.0923C38.5141 38.6674 38.1582 39.2047 37.6403 39.689L35.7062 41.4996L35.7043 41.4977ZM31.3861 36.2779L35.7232 40.9529L37.3766 39.4053C37.8474 38.9663 38.1676 38.4839 38.3296 37.9731C38.4915 37.466 38.5047 36.9457 38.3672 36.4255C38.2297 35.9014 37.936 35.3925 37.4934 34.9157C37.0923 34.4825 36.6346 34.1665 36.1375 33.9716C35.6478 33.7805 35.1318 33.7389 34.6045 33.8487C34.0753 33.9565 33.5499 34.2535 33.0395 34.7322L31.3861 36.2798V36.2779ZM35.8795 39.7553L32.5857 36.206L33.5593 35.2922C33.8964 34.9762 34.2599 34.7795 34.6384 34.7076C35.0169 34.6338 35.4011 34.6716 35.7778 34.8211C36.145 34.9668 36.4915 35.2127 36.8079 35.5533C37.1149 35.8844 37.3352 36.2457 37.4595 36.626C37.5876 37.0157 37.6064 37.4055 37.5103 37.7858C37.4162 38.166 37.194 38.5217 36.8531 38.8415L35.8776 39.7534L35.8795 39.7553ZM33.128 36.2249L35.8983 39.2104L36.5913 38.5615C36.8813 38.289 37.0603 38.0052 37.1375 37.6931C37.2147 37.3847 37.1996 37.0687 37.0942 36.749C36.9849 36.4217 36.7947 36.1095 36.5254 35.8182C36.2486 35.5192 35.9491 35.3054 35.6346 35.1806C35.3277 35.0576 35.0169 35.0273 34.71 35.0879C34.403 35.1465 34.1054 35.3092 33.8211 35.5741L33.128 36.223V36.2249Z" fill="#D93023"/>
<path d="M2.77553 40.9054C3.06051 40.9054 3.29154 40.6733 3.29154 40.387C3.29154 40.1007 3.06051 39.8687 2.77553 39.8687C2.49055 39.8687 2.25952 40.1007 2.25952 40.387C2.25952 40.6733 2.49055 40.9054 2.77553 40.9054Z" fill="#D93023"/>
<path d="M42.4367 40.9054C42.7216 40.9054 42.9527 40.6733 42.9527 40.387C42.9527 40.1007 42.7216 39.8687 42.4367 39.8687C42.1517 39.8687 41.9207 40.1007 41.9207 40.387C41.9207 40.6733 42.1517 40.9054 42.4367 40.9054Z" fill="#D93023"/>
</g>
<defs>
<clipPath id="clip0_301_91">
<rect width="45" height="50" fill="white"/>
</clipPath>
</defs>
</svg>
